<svg width="130" height="46" viewBox="0 0 130 46" fill="none" xmlns="http://www.w3.org/2000/svg">
<path d="M55.7121 17.2024C55.6247 16.2411 55.2358 15.4939 54.5454 14.9608C53.8638 14.419 52.8894 14.1481 51.6222 14.1481C50.7833 14.1481 50.0841 14.2573 49.5248 14.4758C48.9655 14.6943 48.5461 14.9958 48.2664 15.3803C47.9868 15.7561 47.8426 16.1887 47.8338 16.678C47.8164 17.08 47.895 17.434 48.0698 17.7398C48.2533 18.0457 48.5155 18.3166 48.8563 18.5526C49.2059 18.7798 49.6253 18.9808 50.1147 19.1556C50.6041 19.3303 51.1547 19.4833 51.7664 19.6144L54.0735 20.1387C55.4018 20.4271 56.5729 20.8116 57.5866 21.2922C58.609 21.7729 59.4655 22.3453 60.1558 23.0095C60.855 23.6736 61.3837 24.4383 61.742 25.3034C62.1003 26.1686 62.2838 27.1386 62.2925 28.2135C62.2838 29.9089 61.8556 31.364 61.0079 32.5787C60.1602 33.7934 58.9411 34.7241 57.3506 35.3708C55.7689 36.0175 53.8594 36.3408 51.6222 36.3408C49.3763 36.3408 47.4187 36.0044 45.7496 35.3315C44.0804 34.6586 42.7827 33.6361 41.8564 32.2641C40.93 30.892 40.4537 29.1574 40.4275 27.06H46.641C46.6934 27.9252 46.925 28.6461 47.3357 29.2229C47.7465 29.7997 48.3101 30.2366 49.0267 30.5337C49.7521 30.8309 50.591 30.9794 51.5436 30.9794C52.4175 30.9794 53.1603 30.8615 53.772 30.6255C54.3925 30.3896 54.8687 30.0618 55.2008 29.6424C55.5329 29.2229 55.7033 28.7423 55.7121 28.2004C55.7033 27.6936 55.546 27.261 55.2402 26.9027C54.9343 26.5357 54.4624 26.221 53.8244 25.9589C53.1952 25.688 52.3912 25.4389 51.4125 25.2117L48.6072 24.5563C46.2827 24.0232 44.4518 23.1624 43.1148 21.9739C41.7777 20.7766 41.1135 19.1599 41.1223 17.1237C41.1135 15.4633 41.5592 14.0083 42.4594 12.7586C43.3595 11.5089 44.6048 10.5345 46.1953 9.8354C47.7858 9.13628 49.5991 8.78672 51.6353 8.78672C53.7152 8.78672 55.5198 9.14065 57.0491 9.84851C58.5872 10.5476 59.7801 11.5308 60.6278 12.7979C61.4754 14.0651 61.908 15.5332 61.9255 17.2024H55.7121ZM71.9797 9.15376V36H65.5697V9.15376H71.9797ZM76.0598 36V15.8653H82.4698V36H76.0598ZM79.2713 13.5189C78.3712 13.5189 77.5978 13.2218 76.9511 12.6275C76.3044 12.0245 75.9811 11.2992 75.9811 10.4515C75.9811 9.61256 76.3044 8.89596 76.9511 8.3017C77.5978 7.69871 78.3712 7.39722 79.2713 7.39722C80.1802 7.39722 80.9536 7.69871 81.5915 8.3017C82.2382 8.89596 82.5616 9.61256 82.5616 10.4515C82.5616 11.2992 82.2382 12.0245 81.5915 12.6275C80.9536 13.2218 80.1802 13.5189 79.2713 13.5189ZM92.9599 24.5169V36H86.5498V15.8653H92.6453V19.5619H92.8682C93.3138 18.3297 94.0741 17.3641 95.149 16.6649C96.2239 15.9571 97.5042 15.6031 98.9898 15.6031C100.406 15.6031 101.633 15.9221 102.673 16.5601C103.722 17.1893 104.535 18.0719 105.112 19.208C105.697 20.3353 105.985 21.6549 105.977 23.1668V36H99.5666V24.4252C99.5753 23.3066 99.2913 22.4327 98.7146 21.8035C98.1465 21.1743 97.3556 20.8597 96.3419 20.8597C95.669 20.8597 95.0748 21.0082 94.5592 21.3054C94.0523 21.5937 93.659 22.0088 93.3794 22.5507C93.1085 23.0925 92.9687 23.7479 92.9599 24.5169ZM115.726 30.7173L115.752 23.075H116.644L122.307 15.8653H129.569L121.153 26.1948H119.462L115.726 30.7173ZM109.945 36V9.15376H116.355V36H109.945ZM122.451 36L117.181 27.6368L121.402 23.0881L129.857 36H122.451Z" fill="url(#paint0_radial_121_273)"/>
<path d="M14.5699 26.5393L8.90595 32.2032C8.22021 32.8651 7.30438 33.2349 6.35136 33.2349C5.39833 33.2349 4.4825 32.8651 3.79676 32.2032C3.46044 31.8682 3.19357 31.4701 3.01148 31.0317C2.82939 30.5934 2.73565 30.1233 2.73565 29.6486C2.73565 29.1739 2.82939 28.7039 3.01148 28.2655C3.19357 27.8272 3.46044 27.429 3.79676 27.094L9.46067 21.4301C9.73555 21.1553 9.88997 20.7824 9.88997 20.3937C9.88997 20.005 9.73555 19.6321 9.46067 19.3573C9.18579 19.0824 8.81297 18.928 8.42423 18.928C8.03549 18.928 7.66267 19.0824 7.38779 19.3573L1.72389 25.0358C0.582867 26.2777 -0.0342305 27.9125 0.00146669 29.5986C0.0371639 31.2848 0.722895 32.892 1.91546 34.0845C3.10802 35.2771 4.71519 35.9628 6.40135 35.9985C8.08751 36.0342 9.72227 35.4171 10.9642 34.2761L16.6427 28.6122C16.9176 28.3373 17.072 27.9645 17.072 27.5758C17.072 27.187 16.9176 26.8142 16.6427 26.5393C16.3679 26.2645 15.995 26.11 15.6063 26.11C15.2176 26.11 14.8447 26.2645 14.5699 26.5393ZM27.0947 8.90531C25.8667 7.68495 24.2058 7 22.4745 7C20.7433 7 19.0823 7.68495 17.8543 8.90531L12.1758 14.5692C12.0397 14.7053 11.9318 14.8669 11.8581 15.0447C11.7844 15.2226 11.7465 15.4132 11.7465 15.6057C11.7465 15.7981 11.7844 15.9887 11.8581 16.1666C11.9318 16.3444 12.0397 16.506 12.1758 16.6421C12.3119 16.7782 12.4735 16.8862 12.6514 16.9598C12.8292 17.0335 13.0198 17.0714 13.2123 17.0714C13.4048 17.0714 13.5954 17.0335 13.7732 16.9598C13.951 16.8862 14.1126 16.7782 14.2487 16.6421L19.9126 10.9782C20.5984 10.3164 21.5142 9.9465 22.4672 9.9465C23.4202 9.9465 24.3361 10.3164 25.0218 10.9782C25.3581 11.3132 25.625 11.7113 25.8071 12.1497C25.9892 12.5881 26.0829 13.0581 26.0829 13.5328C26.0829 14.0075 25.9892 14.4775 25.8071 14.9159C25.625 15.3543 25.3581 15.7524 25.0218 16.0874L19.3579 21.7513C19.2211 21.887 19.1125 22.0484 19.0384 22.2263C18.9643 22.4042 18.9261 22.595 18.9261 22.7877C18.9261 22.9804 18.9643 23.1712 19.0384 23.3491C19.1125 23.527 19.2211 23.6885 19.3579 23.8242C19.4936 23.961 19.6551 24.0696 19.833 24.1437C20.0108 24.2178 20.2016 24.256 20.3943 24.256C20.5871 24.256 20.7779 24.2178 20.9557 24.1437C21.1336 24.0696 21.2951 23.961 21.4308 23.8242L27.0947 18.1457C28.315 16.9177 29 15.2567 29 13.5255C29 11.7942 28.315 10.1333 27.0947 8.90531ZM9.78182 26.2182C9.91822 26.3535 10.08 26.4605 10.2578 26.5332C10.4357 26.6058 10.6261 26.6426 10.8183 26.6415C11.0104 26.6426 11.2008 26.6058 11.3787 26.5332C11.5565 26.4605 11.7183 26.3535 11.8547 26.2182L19.0368 19.0361C19.3116 18.7612 19.4661 18.3884 19.4661 17.9997C19.4661 17.6109 19.3116 17.2381 19.0368 16.9632C18.7619 16.6884 18.3891 16.5339 18.0003 16.5339C17.6116 16.5339 17.2388 16.6884 16.9639 16.9632L9.78182 24.1453C9.645 24.281 9.5364 24.4425 9.46229 24.6204C9.38818 24.7982 9.35002 24.989 9.35002 25.1817C9.35002 25.3745 9.38818 25.5653 9.46229 25.7431C9.5364 25.921 9.645 26.0825 9.78182 26.2182Z" fill="url(#paint1_linear_121_273)"/>
<defs>
<radialGradient id="paint0_radial_121_273" cx="0" cy="0" r="1" gradientUnits="userSpaceOnUse" gradientTransform="translate(44.0641 36.3458) rotate(-5.80208) scale(87.073 5695.41)">
<stop stop-color="#EB568E"/>
<stop offset="1" stop-color="#144EE3"/>
</radialGradient>
<linearGradient id="paint1_linear_121_273" x1="18.5" y1="17.5" x2="9" y2="26.5" gradientUnits="userSpaceOnUse">
<stop stop-color="#144EE3"/>
<stop offset="1" stop-color="#F42A8B"/>
</linearGradient>
</defs>
</svg>
