<svg width="2810" height="2800" viewBox="0 0 2810 2800" fill="none" xmlns="http://www.w3.org/2000/svg">
<path opacity="0.3" d="M2692.65 1891.62C2421.13 2525.3 1697.86 2880.29 1070.64 2784.53C968.574 2768.95 688.769 2722.53 441.04 2503.56C-35.855 2082.03 -137.842 1247.34 246.854 659.111C526.845 230.985 1028.76 -11.705 1505.67 0.43399C1608.4 3.04899 2002.1 19.164 2348.09 301.938C2398.91 343.472 2510.99 442.168 2612.01 598.743C2849.22 966.411 2869.6 1478.65 2692.65 1891.62Z" fill="url(#paint0_linear_207_269)"/>
<path d="M2458.43 201.165C2461.42 191.933 2450.65 184.346 2442.87 190.148C2363.87 249.065 2169.55 430.297 2172.42 785.94C2176.02 1232.15 2066.08 1382.32 1940.83 1467.31C1940.83 1467.31 2102.79 1439.05 2219.91 1287.31C2507.48 914.733 2405.24 365.32 2458.43 201.165Z" fill="url(#paint1_linear_207_269)"/>
<path d="M2388.48 332.455C2373.98 380.435 2360.43 428.676 2348.67 477.343C2336.66 525.939 2326.12 574.879 2317.12 624.075C2308.32 673.302 2300.44 722.687 2294.66 772.333C2288.67 821.951 2284.81 871.771 2281.11 921.804C2277.14 971.788 2273.41 1022.16 2264.53 1072.31C2255.7 1122.37 2240.76 1172.17 2217.16 1217.77C2211.27 1229.13 2205.14 1240.43 2198.41 1251.25C2191.88 1262.21 2184.86 1272.87 2177.66 1283.41C2163.13 1304.42 2147.19 1324.5 2129.83 1343.31C2095.02 1380.85 2054.51 1413.05 2010.94 1439.24C2006.35 1442 2000.4 1440.52 1997.64 1435.93C1994.93 1431.43 1996.32 1425.61 2000.71 1422.79L2000.74 1422.77C2011.16 1416.1 2021.48 1409.32 2031.47 1402.1C2036.53 1398.56 2041.41 1394.82 2046.37 1391.16C2051.18 1387.33 2056.14 1383.67 2060.83 1379.69C2079.84 1364.09 2097.73 1347.17 2114.28 1329.01C2147.53 1292.89 2175.54 1251.61 2198.16 1208.1C2209.23 1186.2 2218.67 1163.53 2226.32 1140.21C2233.97 1116.89 2239.83 1092.93 2244.32 1068.63C2253.33 1020 2257.42 970.168 2261.76 920.216C2266.16 870.258 2270.92 820.086 2277.75 770.188C2281.09 745.233 2284.88 720.341 2289.12 695.529C2291.16 683.112 2293.45 670.736 2295.71 658.358C2298.09 646.002 2300.54 633.66 2303.09 621.342C2313.39 572.084 2325.18 523.163 2338.5 474.684C2352.05 426.269 2366.88 378.229 2383.54 330.842C2384.02 329.487 2385.5 328.776 2386.85 329.252C2388.17 329.713 2388.88 331.133 2388.48 332.455Z" fill="white"/>
<path d="M2227.23 1629.98C2230.33 1647.59 2250.41 1656.31 2265.52 1646.75C2348.91 1594 2571.18 1423.56 2611.42 1085.33C2645.4 799.71 2690.97 648.066 2716.43 580.659C2721.81 566.405 2705.87 553.564 2693.07 561.835C2551.9 653.088 2114.84 991.845 2227.23 1629.98Z" fill="url(#paint2_linear_207_269)"/>
<path d="M2251.06 1634.29C2251.38 1634.59 2251.73 1634.87 2252.12 1635.12C2255.37 1637.19 2259.69 1636.22 2261.76 1632.97C2264.1 1629.28 2496.94 1259.55 2562.13 864.55C2562.76 860.749 2560.18 857.156 2556.38 856.524C2552.57 855.897 2548.98 858.472 2548.35 862.277C2483.64 1254.4 2252.3 1621.82 2249.97 1625.48C2248.15 1628.35 2248.68 1632.04 2251.06 1634.29Z" fill="white"/>
<path d="M192.85 2508.83C192.85 2532.98 212.628 2552.74 236.801 2552.74H2613.46C2637.63 2552.74 2657.41 2532.98 2657.41 2508.83L2677.19 1143.03C2677.19 1118.88 2648.73 1071.73 2596.59 1075.27L273.857 1015.17C243.527 1014.39 214.202 1026.06 192.724 1047.47C171.246 1068.88 159.494 1098.15 160.211 1128.45L192.85 2508.83Z" fill="url(#paint3_linear_207_269)"/>
<path d="M236.24 2466.7C236.24 2489.57 254.951 2508.28 277.82 2508.28H2556.14C2579.01 2508.28 2597.72 2489.57 2597.72 2466.7L2616.39 1226.82C2614.19 1152.2 2548.77 1125.39 2509.12 1126.97L282.991 1067.25C261.683 1066.68 241.082 1074.89 225.99 1089.94C210.898 1104.99 202.598 1125.59 203.133 1146.9L236.24 2466.7Z" fill="url(#paint4_linear_207_269)"/>
<path d="M2573.11 1877.67C2573.07 1877.67 2573.04 1877.67 2573.01 1877.67C2569.65 1877.62 2566.96 1874.86 2567.01 1871.49L2568.49 1770.93C2568.54 1767.6 2571.25 1764.93 2574.57 1764.93C2574.61 1764.93 2574.64 1764.93 2574.67 1764.93C2578.03 1764.98 2580.72 1767.74 2580.67 1771.11L2579.19 1871.67C2579.15 1875 2576.43 1877.67 2573.11 1877.67Z" fill="white"/>
<path d="M2576.73 1631.26C2576.69 1631.26 2576.66 1631.26 2576.63 1631.26C2573.27 1631.22 2570.58 1628.44 2570.63 1625.08L2576.28 1239.96C2576.18 1217.08 2569.24 1198.82 2555.65 1185.8C2530.28 1161.49 2490 1162.73 2488.3 1162.81L1776.78 1143.73C1773.42 1143.65 1770.76 1140.84 1770.86 1137.48C1770.94 1134.11 1773.53 1131.25 1777.11 1131.56L2488.21 1150.63C2492.63 1150.37 2535.52 1149.63 2564.08 1177C2580.14 1192.39 2588.35 1213.6 2588.47 1240.02L2582.82 1625.26C2582.76 1628.59 2580.05 1631.26 2576.73 1631.26Z" fill="white"/>
<path d="M5.69904 2666.11H2796.38C2799.49 2666.11 2802.03 2663.57 2802.03 2660.46V2551.76C2802.03 2548.65 2799.49 2546.11 2796.38 2546.11H5.69904C2.59004 2546.11 0.0450439 2548.65 0.0450439 2551.76V2660.46C0.0450439 2663.57 2.58904 2666.11 5.69904 2666.11Z" fill="url(#paint5_linear_207_269)"/>
<path d="M2042.06 426.145L630.289 417.502C583.892 417.217 546.785 455.972 549.083 502.313L646.209 2508.1H2217.24L2304.47 716.037L2042.06 426.145Z" fill="url(#paint6_linear_207_269)"/>
<path d="M2100.76 707.444C2054.77 705.826 2019.42 666.19 2023.04 620.317L2038.18 428.787L2304.75 714.86L2100.76 707.444Z" fill="url(#paint7_linear_207_269)"/>
<g opacity="0.79">
<path opacity="0.78" d="M722.429 1574.44C969.862 1575.82 1919.71 1580.31 2159.57 1581.44C2189.82 1581.58 2214.47 1596.53 2214.04 1614.44C2213.63 1631.49 2190.52 1644.94 2161.72 1644.88L725.412 1642.01C697.746 1641.96 674.152 1629.42 670.984 1613.09L670.182 1608.96C666.56 1590.29 690.79 1574.26 722.429 1574.44Z" fill="white"/>
</g>
<g opacity="0.79">
<path opacity="0.78" d="M749.168 2262.84C985.886 2263.26 1894.6 2264.08 2124.07 2264.29C2153.01 2264.31 2176.63 2279.17 2176.25 2297.08C2175.89 2314.13 2153.8 2327.66 2126.25 2327.72L752.152 2330.4C725.684 2330.46 703.088 2318.01 700.026 2301.7L699.251 2297.57C695.749 2278.91 718.899 2262.79 749.168 2262.84Z" fill="white"/>
</g>
<g opacity="0.79">
<path opacity="0.78" d="M1358.35 1719.24C1501.38 1719.51 2050.46 1719.79 2189.11 1719.86C2206.6 1719.86 2220.62 1734.7 2220.09 1752.61C2219.59 1769.65 2206.01 1783.2 2189.37 1783.27L1359.02 1786.77C1343.03 1786.84 1329.58 1774.42 1328.01 1758.11L1327.61 1753.98C1325.8 1735.33 1340.06 1719.2 1358.35 1719.24Z" fill="white"/>
</g>
<path opacity="0.79" d="M1374.67 1857.21C1512.78 1856.2 2042.99 1851.53 2176.88 1850.34C2193.76 1850.19 2207.39 1864.9 2206.99 1882.81C2206.61 1899.86 2193.58 1913.53 2177.51 1913.75L1375.72 1924.74C1360.28 1924.95 1347.22 1912.65 1345.6 1896.35L1345.19 1892.23C1343.33 1873.6 1357 1857.34 1374.67 1857.21Z" fill="white"/>
<path opacity="0.79" d="M1386.28 1992.06C1521.7 1991.88 2041.56 1990.39 2172.84 1990.01C2189.4 1989.97 2202.67 2004.76 2202.16 2022.67C2201.68 2039.71 2188.82 2053.3 2173.06 2053.42L1386.89 2059.59C1371.75 2059.71 1359.03 2047.33 1357.54 2031.02L1357.16 2026.9C1355.46 2008.25 1368.96 1992.08 1386.28 1992.06Z" fill="white"/>
<path opacity="0.79" d="M1380.46 2129.53C1515.88 2129.35 2035.75 2127.87 2167.02 2127.49C2183.58 2127.44 2196.85 2142.24 2196.35 2160.14C2195.86 2177.19 2183.01 2190.78 2167.25 2190.9L1381.08 2197.07C1365.93 2197.19 1353.21 2184.8 1351.72 2168.5L1351.34 2164.37C1349.64 2145.73 1363.15 2129.56 1380.46 2129.53Z" fill="white"/>
<g opacity="0.81">
<path d="M2093.64 1483.17L2185.28 1482.8L2188.54 1151.06L2096.92 1149.61L2093.64 1483.17Z" fill="#F4F7FA"/>
<path d="M1928.24 1483.82L2021.67 1483.45L2028.88 750.032L1935.49 746.37L1928.24 1483.82Z" fill="#F4F7FA"/>
<path d="M1759.57 1484.49L1854.85 1484.11L1861.05 853.356L1765.8 850.231L1759.57 1484.49Z" fill="#F4F7FA"/>
<path d="M1587.53 1485.17L1684.72 1484.79L1686.4 1313.98L1589.22 1313.41L1587.53 1485.17Z" fill="#F4F7FA"/>
<path d="M1412.04 1485.87L1511.18 1485.48L1515.17 1079.99L1416.04 1078.08L1412.04 1485.87Z" fill="#F4F7FA"/>
<path d="M1232.97 1486.58L1334.14 1486.18L1339.94 895.857L1238.8 892.881L1232.97 1486.58Z" fill="#F4F7FA"/>
<path d="M1050.22 1487.31L1153.47 1486.9L1157.75 1051.99L1054.52 1049.89L1050.22 1487.31Z" fill="#F4F7FA"/>
<path d="M863.67 1488.05L969.076 1487.63L975.775 806.067L870.409 802.504L863.67 1488.05Z" fill="#F4F7FA"/>
<path d="M673.209 1488.8L780.832 1488.37L788.356 722.902L680.778 718.811L673.209 1488.8Z" fill="#F4F7FA"/>
</g>
<path d="M742.268 2181.82L1232.4 2179.84C1260.25 2179.73 1282.99 2148.6 1283.36 2110.06L1286.45 1796.42C1286.84 1756.94 1263.65 1724.98 1235.12 1725.65L744.899 1737.28C717.331 1737.94 695.032 1768.9 694.657 1807.05L691.669 2111.04C691.283 2150.13 714.02 2181.93 742.268 2181.82Z" fill="#F4F7FA"/>
<g opacity="0.78">
<path d="M856.11 1913.42C893.674 1915.75 899.552 1885.69 936.584 1883.14C999.393 1878.81 1013.93 1963.49 1074.42 1962.8C1123.8 1962.23 1136.78 1905.28 1185.59 1912.08C1221.87 1917.14 1228.69 1950.68 1264.06 1955.84C1271.13 1956.86 1278.09 1956.56 1284.89 1955.25L1283.43 2103.22C1283.02 2145.55 1258.05 2179.74 1227.46 2179.86L748.516 2181.79C716.829 2181.92 691.323 2146.24 691.754 2102.39L694.422 1830.95C726.104 1834.43 749.157 1844.58 765.638 1854.8C805.283 1879.39 818.209 1911.07 856.11 1913.42Z" fill="white"/>
</g>
<path d="M2167.01 2535.94C2198.96 2538.7 2254.43 2543.19 2298.15 2545.11C2324.43 2546.27 2339.56 2543.69 2348.28 2540.21C2348.27 2541.19 2348.24 2542.12 2348.2 2542.98C2347.99 2547.58 2344.25 2551.26 2339.61 2551.52C2256.99 2556.13 2191.28 2553.12 2167.89 2551.69C2163.05 2551.4 2160.17 2546.14 2162.64 2542.02C2163.88 2539.96 2165.38 2537.93 2167.01 2535.94Z" fill="url(#paint8_linear_207_269)"/>
<path d="M2298.15 2545.11C2254.43 2543.19 2198.96 2538.7 2167.01 2535.94C2198.43 2497.39 2298.15 2471.41 2298.15 2471.41H2326.31C2345.69 2499.33 2348.49 2525.92 2348.28 2540.21C2339.57 2543.69 2324.43 2546.27 2298.15 2545.11Z" fill="url(#paint9_linear_207_269)"/>
<path d="M2331.06 2425.43L2328.42 2477.58C2328.14 2483.23 2323.91 2487.98 2318.25 2488.79C2312.63 2489.59 2305.09 2489.69 2297.1 2487.03C2292.18 2485.4 2288.53 2481.25 2287.62 2476.2L2278.51 2425.43H2331.06Z" fill="url(#paint10_linear_207_269)"/>
<path d="M2696.89 2544.72C2710.75 2542.79 2717.02 2535.59 2719.65 2527.89C2719.66 2527.96 2719.68 2528.03 2719.7 2528.1C2721.74 2536.22 2717.01 2544.63 2707.56 2548.63C2696.14 2553.47 2683.65 2554.29 2673.96 2553.89C2663.56 2553.47 2654.01 2549.16 2648.76 2542.27L2648.68 2542.17C2659.12 2547.33 2673.78 2547.94 2696.89 2544.72Z" fill="url(#paint11_linear_207_269)"/>
<path d="M2631.55 2425.09H2654.78C2690.16 2424.37 2712.38 2498.99 2719.65 2527.89C2717.02 2535.59 2710.75 2542.79 2696.89 2544.72C2673.78 2547.94 2659.12 2547.34 2648.68 2542.17C2629.57 2517.02 2620.09 2480.18 2615.54 2458.68C2610.35 2434.23 2631.55 2425.09 2631.55 2425.09Z" fill="url(#paint12_linear_207_269)"/>
<path d="M2651.79 2376.68L2664.69 2427.98C2666.27 2434.27 2663.26 2440.78 2657.45 2443.76C2650.23 2447.46 2640.07 2451.36 2630.74 2450.23C2626.35 2449.7 2622.7 2446.61 2621.25 2442.47L2602.31 2388.5L2651.79 2376.68Z" fill="url(#paint13_linear_207_269)"/>
<path d="M2667.18 2391.51C2651.13 2405.74 2598.94 2407.62 2598.94 2407.62C2410.92 1956.37 2334.01 1892.26 2334.01 1892.26C2361.16 2062.58 2338.39 2439.66 2338.39 2439.66C2307.36 2453.35 2267.36 2439.66 2267.36 2439.66C2264.84 2160.82 2221.98 1917.64 2171.35 1725.92C2298.42 1723.07 2366 1679.58 2388.07 1662.13C2493.99 1832.9 2667.18 2391.51 2667.18 2391.51Z" fill="url(#paint14_linear_207_269)"/>
<path d="M2355.79 1143.19C2379.85 1263.16 2371.23 1477.89 2365.56 1575.84C2363.97 1603.37 2383.19 1641.53 2398.73 1667.57C2401.16 1671.65 2399.66 1676.88 2395.43 1679.06C2369.42 1692.42 2281.32 1733.85 2179.21 1739C2172.4 1739.34 2166.32 1734.71 2164.56 1728.12C2088.81 1445.31 2000.84 1264.59 2000.84 1264.59C2097.97 1109.48 2355.79 1143.19 2355.79 1143.19Z" fill="url(#paint15_linear_207_269)"/>
<path d="M2321.18 1881.58C2322.25 1881.58 2323.33 1881.29 2324.31 1880.7C2327.14 1878.96 2328.04 1875.26 2326.32 1872.43C2325.31 1870.76 2300.99 1831.45 2251.77 1807.71C2248.78 1806.27 2245.18 1807.52 2243.73 1810.51C2242.29 1813.51 2243.54 1817.11 2246.54 1818.55C2292.42 1840.69 2315.8 1878.31 2316.03 1878.69C2317.17 1880.55 2319.15 1881.58 2321.18 1881.58Z" fill="url(#paint16_linear_207_269)"/>
<path d="M2506.67 1487.51C2498.94 1543.4 2476.11 1604.36 2430.45 1669.12L2413.09 1654.97C2413.09 1654.97 2433.13 1573.67 2421.74 1481.4C2449.91 1475.91 2483.17 1481.57 2506.67 1487.51Z" fill="url(#paint17_linear_207_269)"/>
<path d="M2328.93 1291.22L2355.79 1143.19C2355.79 1143.19 2535.29 1280.39 2506.66 1487.51C2483.17 1481.57 2449.9 1475.9 2421.74 1481.4C2413.53 1414.93 2389.02 1342.78 2328.93 1291.22Z" fill="url(#paint18_linear_207_269)"/>
<path d="M2000.84 1264.59L2070.12 1413.81C2058.92 1503.89 2010.53 1542.85 1958.35 1557.79C1955.09 1516.73 1944.71 1483.56 1935.08 1460.61C2001.75 1391.78 2000.84 1264.59 2000.84 1264.59Z" fill="url(#paint19_linear_207_269)"/>
<path d="M1935.08 1460.61C1944.71 1483.56 1955.09 1516.73 1958.35 1557.79C1819.13 1611.8 1782.29 1507.05 1782.29 1507.05L1808.02 1502.51C1866.13 1508.63 1906.71 1489.9 1935.08 1460.61Z" fill="url(#paint20_linear_207_269)"/>
<path d="M2064.67 1080.37L2098.12 1203.33C2101.88 1217.14 2116.82 1224.56 2130.12 1219.25C2144.46 1213.51 2162.66 1205.69 2178.33 1197.23C2195.05 1188.2 2200.28 1166.69 2189.7 1150.9L2120.15 1047.21L2064.67 1080.37Z" fill="url(#paint21_linear_207_269)"/>
<path d="M1718.49 1424.76L2575.6 1736.72C2611.55 1749.8 2628.73 1790.73 2612.9 1825.56L2610.29 1831.27C2596.28 1862.08 2559.87 1875.6 2529.15 1861.39L1696.9 1476.39L1718.49 1424.76Z" fill="url(#paint22_linear_207_269)"/>
<path opacity="0.27" d="M1324.53 1652.59C1558.2 1652.59 1747.64 1466.58 1747.64 1237.11C1747.64 1007.65 1558.2 821.635 1324.53 821.635C1090.85 821.635 901.414 1007.65 901.414 1237.11C901.414 1466.58 1090.85 1652.59 1324.53 1652.59Z" fill="white"/>
<path d="M853.716 1237.11C853.716 1492.44 1064.5 1699.43 1324.53 1699.43C1584.55 1699.43 1795.33 1492.44 1795.33 1237.11C1795.33 981.784 1584.55 774.797 1324.53 774.797C1064.5 774.798 853.716 981.784 853.716 1237.11ZM922.875 1237.11C922.875 1019.29 1102.7 842.709 1324.53 842.709C1546.35 842.709 1726.17 1019.29 1726.17 1237.11C1726.17 1454.94 1546.35 1631.51 1324.53 1631.51C1102.7 1631.51 922.875 1454.94 922.875 1237.11Z" fill="url(#paint23_linear_207_269)"/>
<path d="M1759.54 1294.99C1759.38 1294.99 1759.22 1294.98 1759.06 1294.96C1756.99 1294.69 1755.54 1292.81 1755.8 1290.75C1757.17 1280.03 1758.14 1269.05 1758.69 1258.13C1758.79 1256.05 1760.68 1254.42 1762.63 1254.56C1764.71 1254.66 1766.31 1256.43 1766.21 1258.5C1765.65 1269.62 1764.67 1280.79 1763.27 1291.7C1763.03 1293.6 1761.4 1294.99 1759.54 1294.99ZM1756.3 1165.71C1754.52 1165.71 1752.93 1164.43 1752.6 1162.61C1747.36 1133.38 1738.96 1104.62 1727.62 1077.12C1727.62 1077.12 1727.62 1077.1 1727.61 1077.1C1660.82 915.052 1502.6 810.347 1324.52 810.347C1241.48 810.347 1160.75 833.414 1091.08 877.054C1089.31 878.151 1086.99 877.622 1085.89 875.861C1084.78 874.096 1085.32 871.776 1087.08 870.67C1157.96 826.28 1240.06 802.818 1324.53 802.818C1505.65 802.818 1666.6 909.357 1734.57 1074.21C1734.57 1074.21 1734.57 1074.22 1734.58 1074.23C1746.12 1102.23 1754.68 1131.52 1760.01 1161.28C1760.38 1163.33 1759.02 1165.29 1756.97 1165.65C1756.75 1165.69 1756.52 1165.71 1756.3 1165.71Z" fill="white"/>
<path d="M1991.5 986.944C1991.19 989.055 2019.39 1127.26 2019.39 1127.26L2097.97 1109.48L2090.7 974.519C2090.7 974.519 1996.6 951.592 1991.5 986.944Z" fill="url(#paint24_linear_207_269)"/>
<path d="M2073.02 1004.59L2082.42 1075.34C2082.54 1076.25 2082.53 1077.15 2082.41 1078.05C2081.61 1083.6 2077.49 1102.48 2058.43 1097.08C2041.14 1092.18 2025.28 1087.97 2014.33 1091.32C2009.41 1092.82 2006.44 1097.8 2007.47 1102.84C2010.04 1115.4 2016.34 1143.58 2025.56 1167.24C2027.43 1172.04 2032.68 1174.56 2037.63 1173.12C2052.53 1168.77 2083.7 1158.73 2106.89 1144.78C2110.03 1142.89 2111.9 1139.47 2111.75 1135.81C2110.99 1117.95 2108.91 1063.65 2110.66 1048.44C2112.31 1034.15 2129.84 1025.59 2137.46 1022.52C2139.96 1021.52 2141.92 1019.55 2142.91 1017.05C2146.44 1008.21 2151.3 987.758 2125.53 979.376C2120.13 977.622 2117.29 971.806 2119.21 966.467C2123.03 955.838 2124.64 939.619 2104.69 930.682C2084.43 921.599 2069.29 932.404 2061.12 941.184C2057.81 944.735 2052.51 945.275 2048.41 942.684C2046.07 941.209 2043.07 940.726 2039.43 942.989C2034.54 946.039 2028.06 943.96 2025.53 938.775C2020.67 928.813 2010.78 918.141 1990.94 921.539C1955.73 927.569 1951.74 966.586 1961.03 989.449C1970.32 1012.31 2008.12 1003.61 2027.08 992.079C2041.5 983.315 2060.21 992.501 2068.34 997.407C2070.92 998.962 2072.63 1001.61 2073.02 1004.59Z" fill="url(#paint25_linear_207_269)"/>
<path d="M2113.83 1074.23C2113.83 1074.23 2099.35 1033.7 2114.22 1023.77C2129.1 1013.84 2151.12 1019 2146.27 1048.36C2140.24 1084.88 2113.83 1074.23 2113.83 1074.23Z" fill="url(#paint26_linear_207_269)"/>
<path d="M2420.25 1652.5L2339.22 1645.9L2304.13 1678.25C2304.13 1678.25 2312.43 1689.72 2338.39 1683.13C2364.34 1676.53 2399.89 1674.91 2399.89 1674.91C2399.89 1674.91 2435.72 1691.07 2436.16 1660.84L2420.25 1652.5Z" fill="url(#paint27_linear_207_269)"/>
<path d="M1792.62 1526.21C1785.61 1531.69 1761.6 1520.26 1746.91 1512.36C1739.75 1508.51 1736.28 1500.13 1738.74 1492.38C1742.27 1481.23 1748.17 1466.84 1755.42 1465.03C1767.47 1462.02 1821.49 1503.65 1792.62 1526.21Z" fill="url(#paint28_linear_207_269)"/>
<path d="M2558.69 1850C2557.13 1850 2555.67 1849.02 2555.14 1847.47C2554.45 1845.5 2555.5 1843.35 2557.46 1842.68C2581.39 1834.4 2593.92 1821.06 2594.7 1803.01C2595.5 1784.7 2583.9 1767.67 2565.86 1760.63L2462.95 1720.5C2461.01 1719.75 2460.05 1717.57 2460.8 1715.63C2461.55 1713.69 2463.74 1712.74 2465.68 1713.49L2568.59 1753.62C2589.64 1761.82 2603.15 1781.8 2602.22 1803.34C2601.58 1818.08 2593.73 1838.11 2559.92 1849.79C2559.51 1849.93 2559.1 1850 2558.69 1850Z" fill="white"/>
<path d="M2432.6 1708.39C2432.15 1708.39 2431.68 1708.31 2431.24 1708.14L2417.9 1702.94C2415.96 1702.18 2415 1700 2415.75 1698.06C2416.51 1696.12 2418.7 1695.17 2420.63 1695.92L2433.97 1701.12C2435.91 1701.87 2436.87 1704.06 2436.11 1705.99C2435.53 1707.48 2434.11 1708.39 2432.6 1708.39Z" fill="white"/>
<g opacity="0.3">
<path d="M780.168 648.493C785.117 647.391 790.201 650.184 791.847 655.096C795.45 665.839 798.638 676.899 801.326 687.966C802.633 693.351 799.33 698.776 793.947 700.083C793.882 700.098 793.819 700.111 793.756 700.126C788.436 701.311 783.123 698.022 781.832 692.702C779.279 682.187 776.249 671.682 772.828 661.477C771.066 656.226 773.896 650.537 779.15 648.777C779.486 648.661 779.827 648.569 780.168 648.493ZM798.535 733.93C798.918 733.845 799.311 733.781 799.711 733.74C805.222 733.179 810.147 737.192 810.708 742.704C811.859 754.025 812.537 765.508 812.723 776.83C812.814 782.37 808.418 786.917 802.859 787.028C797.319 787.118 792.756 782.699 792.665 777.163C792.487 766.4 791.842 755.492 790.747 744.733C790.227 739.622 793.641 735.02 798.535 733.93ZM797.634 821.285C798.724 821.042 799.874 820.979 801.046 821.123C806.543 821.806 810.45 826.812 809.77 832.311C808.378 843.581 806.476 854.931 804.119 866.046C802.966 871.466 797.64 874.92 792.224 873.778C786.806 872.628 783.343 867.302 784.493 861.884C786.732 851.329 788.537 840.554 789.861 829.85C790.394 825.523 793.61 822.182 797.634 821.285ZM777.217 906.264C779.019 905.863 780.952 905.954 782.815 906.631C788.022 908.522 790.708 914.279 788.817 919.485C784.933 930.165 780.543 940.805 775.767 951.11C773.434 956.129 767.475 958.316 762.447 955.992C757.422 953.663 755.237 947.699 757.565 942.672C762.101 932.886 766.273 922.78 769.959 912.63C771.176 909.287 773.983 906.984 777.217 906.264ZM738.364 984.554C740.89 983.991 743.631 984.401 745.977 985.913C750.636 988.914 751.978 995.122 748.977 999.777C742.838 1009.3 736.203 1018.71 729.257 1027.71C725.877 1032.1 719.578 1032.92 715.189 1029.53C710.803 1026.15 709.988 1019.85 713.37 1015.46C719.974 1006.9 726.279 997.967 732.114 988.912C733.601 986.603 735.878 985.108 738.364 984.554ZM683.163 1052.3C686.435 1051.57 689.997 1052.49 692.516 1055.06C696.394 1059.02 696.331 1065.37 692.376 1069.25C684.269 1077.19 675.718 1084.9 666.962 1092.13C662.688 1095.66 656.368 1095.05 652.839 1090.78C649.311 1086.51 649.914 1080.19 654.184 1076.66C662.504 1069.79 670.628 1062.47 678.331 1054.92C679.718 1053.56 681.398 1052.69 683.163 1052.3ZM329.575 1155.52C330.931 1155.22 332.368 1155.19 333.815 1155.5C344.361 1157.72 355.147 1159.51 365.87 1160.81C371.368 1161.48 375.284 1166.48 374.614 1171.98C373.947 1177.48 368.946 1181.39 363.445 1180.72C352.152 1179.35 340.791 1177.47 329.685 1175.13C324.263 1173.99 320.793 1168.67 321.934 1163.25C322.77 1159.27 325.853 1156.35 329.575 1155.52ZM614.367 1106.08C618.429 1105.18 622.792 1106.88 625.093 1110.62C627.995 1115.34 626.521 1121.52 621.802 1124.42C612.13 1130.37 602.08 1135.97 591.932 1141.06C586.971 1143.53 580.952 1141.55 578.465 1136.6C575.98 1131.65 577.979 1125.62 582.93 1123.13C592.567 1118.3 602.109 1112.98 611.295 1107.33C612.272 1106.73 613.31 1106.32 614.367 1106.08ZM416.569 1163.75C417.215 1163.61 417.885 1163.52 418.573 1163.51C429.355 1163.31 440.272 1162.64 451.019 1161.53C456.53 1160.96 461.461 1164.97 462.032 1170.48C462.601 1175.98 458.606 1180.94 453.088 1181.49C441.78 1182.66 430.292 1183.36 418.947 1183.57C413.408 1183.67 408.833 1179.27 408.732 1173.73C408.64 1168.88 412.01 1164.77 416.569 1163.75ZM535.281 1143.16C540.222 1142.06 545.3 1144.84 546.954 1149.74C548.726 1154.99 545.906 1160.68 540.658 1162.46C529.911 1166.08 518.862 1169.29 507.818 1171.99C507.75 1172.01 507.679 1172.03 507.61 1172.04C502.298 1173.23 496.991 1169.95 495.69 1164.64C494.373 1159.26 497.665 1153.83 503.048 1152.51C513.538 1149.94 524.032 1146.89 534.243 1143.44C534.587 1143.33 534.935 1143.23 535.281 1143.16Z" fill="url(#paint29_linear_207_269)"/>
<path d="M262.241 1134.84C264.169 1134.41 266.244 1134.54 268.211 1135.35C272.997 1137.31 277.904 1139.2 282.796 1140.98C288.003 1142.86 290.696 1148.62 288.807 1153.82C286.92 1159.03 281.165 1161.73 275.957 1159.83C270.811 1157.97 265.651 1155.98 260.613 1153.92C255.487 1151.82 253.03 1145.96 255.128 1140.84C256.421 1137.67 259.143 1135.53 262.241 1134.84Z" fill="url(#paint30_linear_207_269)"/>
</g>
<g opacity="0.3">
<path d="M46.9181 917.67C51.6431 916.618 56.5661 919.118 58.4111 923.761C60.3181 928.567 62.3601 933.415 64.4781 938.166C66.7331 943.228 64.4591 949.158 59.4001 951.413C54.3181 953.677 48.4081 951.392 46.1541 946.335C43.9261 941.332 41.7751 936.227 39.7651 931.167C37.7211 926.018 40.2381 920.187 45.3861 918.141C45.8901 917.94 46.4041 917.785 46.9181 917.67Z" fill="url(#paint31_linear_207_269)"/>
<path d="M324.583 391.95C329.088 390.947 333.628 390.016 338.2 389.158C343.645 388.138 348.888 391.723 349.91 397.168C350.932 402.613 347.324 407.881 341.902 408.879C331.35 410.86 320.902 413.263 310.733 416.058C305.384 417.518 299.871 414.387 298.402 409.046C296.933 403.701 300.074 398.18 305.416 396.713C311.706 394.982 318.156 393.381 324.583 391.95ZM390.797 382.97C391.344 382.848 391.91 382.771 392.49 382.742C403.668 382.183 414.994 382.093 426.153 382.474C431.688 382.662 436.024 387.304 435.836 392.838C435.646 398.376 430.997 402.727 425.468 402.521C414.87 402.16 404.111 402.248 393.488 402.775C387.956 403.052 383.247 398.79 382.971 393.259C382.724 388.305 386.113 384.013 390.797 382.97ZM255.609 414.197C260.225 413.169 265.065 415.531 266.997 420.034C269.181 425.128 266.823 431.024 261.732 433.21C251.992 437.386 242.3 442.038 232.921 447.042C228.028 449.641 221.956 447.798 219.349 442.911C216.742 438.02 218.593 431.944 223.481 429.338C233.357 424.071 243.567 419.172 253.823 414.772C254.41 414.52 255.008 414.331 255.609 414.197ZM476.655 388.169C477.898 387.892 479.214 387.852 480.545 388.081C491.562 389.991 502.631 392.395 513.442 395.225C518.8 396.629 522.006 402.109 520.603 407.467C519.2 412.829 513.722 416.037 508.359 414.63C498.094 411.943 487.584 409.659 477.12 407.847C471.661 406.904 468.003 401.708 468.95 396.251C469.664 392.127 472.805 389.027 476.655 388.169ZM180.864 456.617C184.65 455.774 188.749 457.181 191.172 460.523C194.423 465.009 193.422 471.282 188.935 474.533C180.358 480.747 171.926 487.418 163.871 494.358C159.675 497.975 153.34 497.506 149.723 493.306C146.108 489.109 146.579 482.778 150.775 479.162C159.253 471.854 168.131 464.831 177.162 458.287C178.307 457.46 179.568 456.906 180.864 456.617ZM117.237 514.413C120.264 513.739 123.561 514.474 126.064 516.682C130.217 520.349 130.611 526.689 126.944 530.841C119.913 538.806 113.134 547.16 106.798 555.669C103.496 560.118 97.2131 561.039 92.7631 557.727C88.3191 554.417 87.3991 548.135 90.7061 543.689C97.3741 534.733 104.506 525.943 111.907 517.563C113.362 515.914 115.24 514.858 117.237 514.413ZM67.7221 584.705C70.0241 584.192 72.514 584.485 74.743 585.714C79.594 588.387 81.3581 594.489 78.6831 599.34C73.5481 608.653 68.749 618.28 64.423 627.963C62.163 633.019 56.2361 635.29 51.1721 633.026C46.1161 630.764 43.8481 624.834 46.1091 619.774C50.6641 609.587 55.7131 599.45 61.1151 589.652C62.5621 587.031 65.0111 585.309 67.7221 584.705ZM34.7191 664.117C36.3141 663.762 38.0171 663.792 39.6971 664.281C45.0161 665.83 48.0701 671.396 46.5211 676.715C43.5481 686.919 40.9781 697.363 38.8821 707.761C37.7871 713.191 32.4911 716.707 27.0691 715.615C21.6371 714.521 18.1221 709.23 19.2171 703.8C21.4241 692.847 24.1301 681.847 27.2601 671.106C28.3221 667.465 31.2641 664.886 34.7191 664.117ZM19.9481 748.87C20.8451 748.67 21.7851 748.593 22.7481 748.652C28.2771 748.99 32.4861 753.749 32.1451 759.276C31.4971 769.858 31.2921 780.606 31.5381 791.229C31.6661 796.768 27.2631 801.358 21.7421 801.488C16.2031 801.618 11.6091 797.229 11.4811 791.69C11.2221 780.508 11.4381 769.191 12.1221 758.052C12.4021 753.485 15.6961 749.817 19.9481 748.87ZM24.1551 834.738C24.3561 834.693 24.5601 834.656 24.7661 834.622C30.2361 833.749 35.3791 837.476 36.2511 842.947C37.4831 850.669 38.9681 858.443 40.6651 866.062C41.2791 868.82 41.9251 871.566 42.5951 874.295C43.9161 879.677 40.6261 885.111 35.2461 886.429C29.8251 887.873 24.4341 884.461 23.1131 879.084C22.4071 876.21 21.7301 873.326 21.0841 870.423C19.2991 862.41 17.7381 854.228 16.4421 846.106C15.5991 840.843 19.0211 835.882 24.1551 834.738Z" fill="url(#paint32_linear_207_269)"/>
<path d="M559.48 412.245C561.427 411.811 563.519 411.951 565.499 412.771C570.515 414.853 575.581 417.081 580.558 419.392C585.584 421.725 587.766 427.69 585.432 432.714C583.097 437.738 577.139 439.924 572.11 437.588C567.382 435.393 562.569 433.278 557.808 431.3C552.693 429.18 550.266 423.31 552.389 418.192C553.691 415.056 556.401 412.931 559.48 412.245Z" fill="url(#paint33_linear_207_269)"/>
</g>
<path d="M571.563 528.753C569.992 527.516 567.808 527.411 566.126 528.493L518.134 559.359C493.992 548.079 467.877 540.565 440.626 537.504L415.809 486.164C414.939 484.363 413.021 483.313 411.035 483.549L343.068 491.62C341.081 491.856 339.464 493.327 339.039 495.28L326.937 551.005C301.16 560.365 277.532 573.784 256.704 590.406L202.817 571.638C200.928 570.98 198.83 571.593 197.593 573.164L155.241 626.931C154.003 628.503 153.898 630.687 154.981 632.368L185.847 680.359C174.566 704.501 167.054 730.616 163.992 757.868L112.651 782.686C110.85 783.556 109.8 785.473 110.036 787.459L118.108 855.426C118.343 857.412 119.814 859.03 121.769 859.454L177.494 871.556C186.854 897.333 200.272 920.962 216.895 941.789L198.127 995.677C197.47 997.565 198.083 999.663 199.653 1000.9L253.42 1043.25C254.991 1044.49 257.175 1044.6 258.857 1043.51L306.849 1012.65C330.99 1023.93 357.106 1031.44 384.357 1034.5L409.174 1085.84C410.044 1087.64 411.961 1088.69 413.947 1088.46L481.914 1080.39C483.901 1080.15 485.518 1078.68 485.942 1076.73L498.044 1021C523.821 1011.64 547.45 998.223 568.278 981.601L622.164 1000.37C624.053 1001.03 626.152 1000.41 627.389 998.842L669.741 945.075C670.979 943.504 671.083 941.321 670.001 939.638L639.135 891.647C650.416 867.505 657.928 841.39 660.99 814.138L712.331 789.321C714.131 788.451 715.182 786.534 714.945 784.547L706.874 716.581C706.638 714.595 705.169 712.977 703.214 712.552L647.489 700.45C638.129 674.674 624.71 651.045 608.088 630.217L626.855 576.33C627.513 574.441 626.9 572.344 625.329 571.105L571.563 528.753Z" fill="url(#paint34_linear_207_269)"/>
<path opacity="0.56" d="M397.576 718.836C430.311 711.545 464.408 729.18 476.744 761.414C490.302 796.847 472.508 836.699 437.078 850.258C419.914 856.831 401.219 856.318 384.443 848.827C367.663 841.337 354.803 827.758 348.237 810.594C334.678 775.161 352.473 735.309 387.902 721.75C391.097 720.528 394.331 719.559 397.576 718.836ZM423.852 837.524C426.38 836.961 428.881 836.211 431.344 835.269C458.508 824.875 472.15 794.314 461.757 767.152C451.361 739.987 420.807 726.331 393.638 736.738C366.474 747.132 352.832 777.692 363.225 804.855C368.262 818.016 378.12 828.426 390.986 834.171C401.443 838.838 412.873 839.969 423.852 837.524Z" fill="white"/>
<path opacity="0.56" d="M374.6 622.151C380.222 620.899 385.94 619.922 391.737 619.233C393.561 619.015 395.391 618.829 397.222 618.67C406.251 617.891 415.329 617.832 424.313 618.493C424.435 618.502 424.558 618.511 424.68 618.519C425.027 618.546 425.375 618.573 425.723 618.604C426.399 618.658 427.075 618.72 427.75 618.783C429.525 618.95 430.921 620.248 431.291 621.9C431.38 622.301 431.409 622.725 431.368 623.155C431.16 625.361 429.2 626.974 426.997 626.77C415.644 625.698 404.101 625.844 392.687 627.202C335.983 633.926 289.602 669.499 266.47 717.476C253.6 744.16 247.926 774.684 251.673 806.221C252.328 811.752 253.259 817.208 254.455 822.57C262.497 858.658 282.539 890.616 311.976 913.801C345.788 940.436 387.949 952.309 430.69 947.233C518.96 936.741 582.183 856.443 571.704 768.214C571.058 762.774 570.139 757.386 568.954 752.075C563.823 729.055 553.712 707.414 539.27 688.741C538.897 688.258 538.651 687.719 538.528 687.16C538.201 685.691 538.718 684.095 539.99 683.113C541.748 681.762 544.262 682.073 545.62 683.834C560.781 703.439 571.4 726.16 576.786 750.326C578.03 755.902 578.994 761.556 579.674 767.265C590.676 859.898 524.238 944.204 431.638 955.203C386.767 960.532 342.508 948.067 307.012 920.105C276.108 895.765 255.069 862.214 246.624 824.33C245.37 818.7 244.393 812.972 243.703 807.169C238.375 762.295 250.838 718.035 278.798 682.539C303.144 651.631 336.706 630.591 374.6 622.151Z" fill="white"/>
<g opacity="0.3">
<path d="M1056.82 316.051C1059.44 315.468 1062.23 316.638 1063.59 319.106C1066.13 323.709 1068.57 328.453 1070.83 333.205C1072.31 336.293 1071 339.987 1067.91 341.463C1064.82 342.95 1061.12 341.623 1059.65 338.536C1057.49 334.008 1055.17 329.487 1052.74 325.093C1051.08 322.102 1052.17 318.333 1055.17 316.674C1055.7 316.381 1056.26 316.177 1056.82 316.051Z" fill="url(#paint35_linear_207_269)"/>
<path d="M1075.94 359.707C1079 359.024 1082.15 360.76 1083.16 363.802C1086.01 372.396 1088.46 381.236 1090.43 390.07C1090.84 391.93 1091.24 393.801 1091.62 395.682C1092.29 399.041 1089.91 402.217 1086.76 402.98C1083.41 403.653 1080.14 401.479 1079.47 398.127C1079.11 396.329 1078.73 394.541 1078.33 392.763C1076.46 384.336 1074.12 375.905 1071.4 367.709C1070.32 364.46 1072.08 360.956 1075.32 359.874C1075.53 359.811 1075.73 359.753 1075.94 359.707ZM1088.59 422.779C1088.88 422.715 1089.17 422.668 1089.47 422.644C1092.89 422.386 1095.86 424.94 1096.12 428.353C1096.96 439.299 1097.13 450.395 1096.62 461.326C1096.46 464.746 1093.54 467.379 1090.14 467.225C1086.72 467.063 1084.08 464.167 1084.24 460.748C1084.73 450.319 1084.57 439.736 1083.77 429.296C1083.53 426.187 1085.63 423.438 1088.59 422.779ZM1085.57 487.036C1086.34 486.865 1087.15 486.84 1087.97 486.978C1091.35 487.56 1093.6 490.77 1093.02 494.141C1091.15 504.941 1088.59 515.746 1085.39 526.245C1084.39 529.523 1080.94 531.364 1077.66 530.367C1074.39 529.372 1072.54 525.909 1073.53 522.638C1076.58 512.624 1079.03 502.328 1080.81 492.026C1081.25 489.479 1083.19 487.565 1085.57 487.036ZM1066.85 548.586C1068.1 548.307 1069.45 548.416 1070.71 548.972C1073.83 550.365 1075.24 554.03 1073.85 557.155C1069.38 567.188 1064.25 577.027 1058.6 586.406C1056.83 589.335 1053.02 590.271 1050.09 588.511C1047.16 586.747 1046.22 582.941 1047.99 580.006C1053.37 571.07 1058.27 561.68 1062.53 552.115C1063.36 550.249 1065 548.999 1066.85 548.586ZM1033.66 603.695C1035.41 603.306 1037.31 603.675 1038.83 604.867C1041.52 606.976 1042 610.869 1039.89 613.564C1033.12 622.194 1025.76 630.491 1018 638.219C1015.58 640.643 1011.65 640.63 1009.24 638.205C1006.82 635.78 1006.83 631.855 1009.25 629.444C1016.65 622.068 1023.68 614.156 1030.13 605.918C1031.05 604.747 1032.31 603.995 1033.66 603.695ZM988.106 649.073C990.371 648.569 992.83 649.367 994.35 651.321C996.448 654.021 995.957 657.912 993.258 660.013C984.597 666.74 975.433 672.99 966.023 678.582C963.067 680.325 959.279 679.359 957.53 676.42C955.782 673.481 956.75 669.676 959.69 667.93C968.665 662.596 977.398 656.641 985.655 650.227C986.402 649.645 987.241 649.266 988.106 649.073ZM932.856 681.928C935.69 681.297 938.667 682.735 939.873 685.491C941.244 688.626 939.814 692.279 936.68 693.653C926.666 698.035 916.245 701.843 905.705 704.978C902.402 705.9 898.971 704.079 898 700.799C897.025 697.52 898.894 694.072 902.172 693.095C912.228 690.111 922.167 686.478 931.715 682.3C932.09 682.135 932.473 682.013 932.856 681.928ZM839.138 703.607C839.486 703.529 839.85 703.479 840.222 703.464C849.246 703.072 858.407 702.179 867.453 700.808C868.824 700.608 870.168 700.395 871.506 700.166C874.882 699.6 878.078 701.869 878.647 705.245C879.223 708.625 876.945 711.922 873.571 712.388C872.142 712.626 870.716 712.856 869.278 713.066C859.827 714.495 850.224 715.432 840.76 715.841C837.34 715.989 834.451 713.341 834.303 709.922C834.17 706.877 836.259 704.249 839.138 703.607Z" fill="url(#paint36_linear_207_269)"/>
</g>
<g opacity="0.3">
<path d="M767.565 188.119C770.866 187.384 774.157 189.44 774.939 192.743C775.726 196.07 773.666 199.411 770.336 200.196C760.311 202.565 750.346 205.566 740.717 209.118C737.516 210.265 733.943 208.662 732.759 205.448C731.575 202.235 733.221 198.675 736.429 197.49C746.529 193.772 756.975 190.62 767.483 188.137C767.509 188.131 767.539 188.125 767.565 188.119ZM798.793 182.694C799.012 182.645 799.23 182.609 799.457 182.584C810.175 181.374 821.075 180.806 831.855 180.891C835.277 180.922 838.028 183.712 838 187.134C837.976 190.561 835.159 193.302 831.758 193.285C821.472 193.202 811.071 193.746 800.842 194.896C797.444 195.281 794.376 192.834 793.994 189.435C793.636 186.254 795.746 183.373 798.793 182.694ZM708.216 210.016C710.897 209.419 713.748 210.668 715.067 213.226C716.633 216.262 715.441 219.998 712.4 221.568C703.241 226.298 694.295 231.619 685.807 237.397C682.964 239.313 679.124 238.588 677.201 235.756C675.276 232.93 676.009 229.073 678.838 227.147C687.736 221.093 697.117 215.513 706.719 210.56C707.206 210.308 707.708 210.129 708.216 210.016ZM862.087 183.238C862.775 183.085 863.501 183.047 864.241 183.142C874.942 184.546 885.665 186.627 896.107 189.328C899.421 190.183 901.411 193.564 900.556 196.879C899.698 200.181 896.318 202.174 893.008 201.324C883.05 198.751 872.83 196.769 862.627 195.428C859.236 194.981 856.845 191.869 857.292 188.478C857.64 185.827 859.619 183.787 862.087 183.238ZM655.925 245.608C658.066 245.131 660.396 245.808 661.938 247.572C664.195 250.15 663.933 254.063 661.36 256.317C653.622 263.086 646.22 270.4 639.358 278.065C637.073 280.62 633.155 280.829 630.607 278.545C628.059 276.261 627.843 272.342 630.127 269.794C637.326 261.763 645.085 254.09 653.195 246.99C654.005 246.283 654.948 245.825 655.925 245.608ZM613.697 292.706C615.336 292.341 617.114 292.639 618.596 293.673C621.401 295.633 622.087 299.496 620.127 302.301C614.224 310.751 608.782 319.63 603.954 328.689C602.343 331.713 598.587 332.854 595.572 331.244C592.552 329.635 591.41 325.886 593.018 322.868C598.08 313.367 603.782 304.057 609.968 295.203C610.891 293.883 612.238 293.031 613.697 292.706ZM583.965 348.57C585.116 348.314 586.352 348.379 587.537 348.84C590.73 350.069 592.32 353.657 591.088 356.851C587.374 366.462 584.223 376.387 581.721 386.347C580.884 389.658 577.519 391.678 574.202 390.842C570.883 390.007 568.869 386.643 569.704 383.321C572.331 372.88 575.634 362.468 579.525 352.385C580.302 350.378 582.011 349.005 583.965 348.57Z" fill="url(#paint37_linear_207_269)"/>
<path d="M923.64 199.163C924.807 198.903 926.06 198.978 927.256 199.449C932.189 201.394 937.086 203.495 941.815 205.69C944.916 207.132 946.267 210.816 944.826 213.921C943.379 217.014 939.701 218.366 936.595 216.932C932.087 214.837 927.414 212.834 922.707 210.975C919.524 209.72 917.962 206.119 919.218 202.938C920.003 200.952 921.7 199.595 923.64 199.163Z" fill="url(#paint38_linear_207_269)"/>
</g>
<path d="M936.013 278.404C934.962 277.576 933.501 277.506 932.375 278.23L900.261 298.884C884.107 291.336 866.632 286.308 848.396 284.259L831.789 249.905C831.207 248.7 829.924 247.997 828.595 248.155L783.115 253.556C781.786 253.714 780.704 254.698 780.419 256.005L772.321 293.294C755.072 299.557 739.261 308.536 725.324 319.659L689.266 307.1C688.002 306.66 686.598 307.07 685.77 308.122L657.43 344.1C656.602 345.152 656.532 346.613 657.256 347.738L677.91 379.852C670.361 396.007 665.334 413.482 663.285 431.718L628.93 448.324C627.725 448.907 627.022 450.189 627.18 451.518L632.581 496.999C632.739 498.329 633.723 499.411 635.03 499.694L672.319 507.792C678.582 525.041 687.561 540.852 698.684 554.789L686.126 590.848C685.686 592.111 686.096 593.515 687.147 594.343L723.126 622.683C724.177 623.511 725.638 623.581 726.764 622.857L758.878 602.202C775.032 609.752 792.507 614.778 810.743 616.827L827.35 651.183C827.932 652.387 829.215 653.091 830.544 652.933L876.025 647.532C877.354 647.374 878.436 646.391 878.72 645.083L886.818 607.794C904.067 601.531 919.879 592.551 933.816 581.429L969.873 593.987C971.137 594.428 972.542 594.017 973.37 592.966L1001.71 556.988C1002.54 555.937 1002.61 554.476 1001.88 553.35L981.231 521.236C988.78 505.081 993.806 487.606 995.855 469.37L1030.21 452.764C1031.42 452.182 1032.12 450.899 1031.96 449.57L1026.56 404.09C1026.4 402.761 1025.42 401.678 1024.11 401.394L986.821 393.295C980.558 376.047 971.579 360.236 960.456 346.298L973.014 310.239C973.454 308.975 973.044 307.571 971.993 306.742L936.013 278.404Z" fill="url(#paint39_linear_207_269)"/>
<path opacity="0.56" d="M819.476 404.774C829.231 402.601 839.386 403.606 848.677 407.753C860.107 412.856 868.865 422.107 873.337 433.799C882.572 457.925 870.454 485.071 846.321 494.314C822.138 503.519 795.035 491.425 785.801 467.293C781.325 455.601 781.672 442.867 786.776 431.44C791.878 420.008 801.128 411.247 812.823 406.776C815.009 405.942 817.234 405.273 819.476 404.774ZM837.045 484.2C838.672 483.838 840.29 483.353 841.893 482.742C859.643 475.944 868.557 455.976 861.764 438.224C858.473 429.628 852.032 422.819 843.625 419.069C835.214 415.314 825.852 415.069 817.248 418.349C808.649 421.64 801.843 428.084 798.09 436.489C794.335 444.9 794.081 454.266 797.373 462.869C803.553 479.014 820.643 487.853 837.045 484.2Z" fill="white"/>
<path opacity="0.56" d="M803.57 337.455C807.397 336.603 811.297 335.939 815.269 335.463C823.158 334.524 831.151 334.386 839.046 335.058C839.401 335.091 839.755 335.123 840.11 335.156C842.851 335.413 845.006 337.419 845.577 339.97C845.715 340.59 845.758 341.243 845.696 341.908C845.376 345.314 842.347 347.799 838.946 347.49C831.582 346.793 824.11 346.89 816.737 347.769L816.734 347.77C816.329 347.817 815.923 347.871 815.522 347.923C798.092 350.163 781.88 356.662 768.007 366.694C760.477 372.14 753.636 378.635 747.671 386.069C747.622 386.129 747.574 386.19 747.525 386.25C747.378 386.438 747.229 386.62 747.085 386.807C729.845 408.697 722.157 435.991 725.444 463.66C725.867 467.242 726.47 470.771 727.243 474.243C732.45 497.605 745.426 518.293 764.483 533.308C786.374 550.549 813.666 558.231 841.332 554.944C868.981 551.65 893.735 537.792 910.981 515.907C928.221 494.017 935.909 466.723 932.622 439.054C932.207 435.533 931.609 432.046 930.844 428.609C927.521 413.704 920.977 399.696 911.627 387.609C911.052 386.863 910.671 386.031 910.482 385.168C909.977 382.9 910.776 380.435 912.738 378.919C915.45 376.833 919.334 377.32 921.432 380.032C931.892 393.558 939.217 409.233 942.936 425.903C943.794 429.753 944.461 433.652 944.929 437.59C948.605 468.551 940.006 499.085 920.713 523.577C901.422 548.062 873.771 563.594 842.797 567.251C811.84 570.929 781.306 562.333 756.817 543.037C735.495 526.246 720.98 503.098 715.155 476.961C714.291 473.081 713.615 469.128 713.139 465.125C706.023 405.187 745.879 350.304 803.57 337.455Z" fill="white"/>
<path d="M1528.04 1385.42C1542.65 1400.05 1542.65 1422.81 1528.04 1437.44C1520.73 1444.75 1511.8 1448 1502.06 1448C1492.32 1448 1483.38 1444.75 1476.08 1437.44L1327.5 1288.71L1178.92 1437.44C1171.62 1444.75 1162.68 1448 1152.94 1448C1143.2 1448 1134.27 1444.75 1126.96 1437.44C1112.35 1422.81 1112.35 1400.05 1126.96 1385.42L1275.54 1236.7L1126.96 1087.98C1112.35 1073.35 1112.35 1050.6 1126.96 1035.97C1141.57 1021.34 1164.31 1021.34 1178.92 1035.97L1327.5 1184.69L1476.08 1035.97C1490.69 1021.34 1513.43 1021.34 1528.04 1035.97C1542.65 1050.6 1542.65 1073.35 1528.04 1087.98L1379.46 1236.7L1528.04 1385.42Z" fill="black"/>
<defs>
<linearGradient id="paint0_linear_207_269" x1="3043.6" y1="2845.23" x2="950.616" y2="1013.87" gradientUnits="userSpaceOnUse">
<stop stop-color="#B37CFF"/>
<stop offset="1" stop-color="#F895E7"/>
</linearGradient>
<linearGradient id="paint1_linear_207_269" x1="2606.09" y1="710.156" x2="1790.8" y2="943.813" gradientUnits="userSpaceOnUse">
<stop stop-color="#A737D5"/>
<stop offset="1" stop-color="#EF497A"/>
</linearGradient>
<linearGradient id="paint2_linear_207_269" x1="2523.75" y1="1623.15" x2="2418.36" y2="587.994" gradientUnits="userSpaceOnUse">
<stop stop-color="#CE1567"/>
<stop offset="1" stop-color="#7A1DBC"/>
</linearGradient>
<linearGradient id="paint3_linear_207_269" x1="1642.21" y1="2447.74" x2="1080.9" y2="763.789" gradientUnits="userSpaceOnUse">
<stop stop-color="#2B3582"/>
<stop offset="1" stop-color="#150E42"/>
</linearGradient>
<linearGradient id="paint4_linear_207_269" x1="2303.86" y1="1028.55" x2="-1709.6" y2="4444.41" gradientUnits="userSpaceOnUse">
<stop stop-color="#FDF53F"/>
<stop offset="1" stop-color="#D93C65"/>
</linearGradient>
<linearGradient id="paint5_linear_207_269" x1="335.687" y1="2346.97" x2="2836.23" y2="2955.21" gradientUnits="userSpaceOnUse">
<stop stop-color="#2B3582"/>
<stop offset="1" stop-color="#150E42"/>
</linearGradient>
<linearGradient id="paint6_linear_207_269" x1="1519.39" y1="611.13" x2="1146.04" y2="3046.5" gradientUnits="userSpaceOnUse">
<stop stop-color="#53D8FF"/>
<stop offset="0.2057" stop-color="#4DB9FD"/>
<stop offset="1" stop-color="#3840F7"/>
</linearGradient>
<linearGradient id="paint7_linear_207_269" x1="2200.55" y1="539.014" x2="1852.65" y2="931.388" gradientUnits="userSpaceOnUse">
<stop stop-color="#53D8FF"/>
<stop offset="0.2057" stop-color="#4DB9FD"/>
<stop offset="1" stop-color="#3840F7"/>
</linearGradient>
<linearGradient id="paint8_linear_207_269" x1="2626.6" y1="5691.66" x2="2594.35" y2="5418.32" gradientUnits="userSpaceOnUse">
<stop stop-color="#53D8FF"/>
<stop offset="0.2057" stop-color="#4DB9FD"/>
<stop offset="1" stop-color="#3840F7"/>
</linearGradient>
<linearGradient id="paint9_linear_207_269" x1="2348.29" y1="2508.4" x2="2167.01" y2="2508.4" gradientUnits="userSpaceOnUse">
<stop stop-color="#2B3582"/>
<stop offset="1" stop-color="#150E42"/>
</linearGradient>
<linearGradient id="paint10_linear_207_269" x1="2331.06" y1="2457.36" x2="2278.51" y2="2457.36" gradientUnits="userSpaceOnUse">
<stop stop-color="#F9B776"/>
<stop offset="1" stop-color="#F47960"/>
</linearGradient>
<linearGradient id="paint11_linear_207_269" x1="3050.86" y1="5641.58" x2="3018.6" y2="5368.24" gradientUnits="userSpaceOnUse">
<stop stop-color="#53D8FF"/>
<stop offset="0.2057" stop-color="#4DB9FD"/>
<stop offset="1" stop-color="#3840F7"/>
</linearGradient>
<linearGradient id="paint12_linear_207_269" x1="2719.65" y1="2485.9" x2="2614.72" y2="2485.9" gradientUnits="userSpaceOnUse">
<stop stop-color="#2B3582"/>
<stop offset="1" stop-color="#150E42"/>
</linearGradient>
<linearGradient id="paint13_linear_207_269" x1="2665.11" y1="2413.55" x2="2602.31" y2="2413.55" gradientUnits="userSpaceOnUse">
<stop stop-color="#F9B776"/>
<stop offset="1" stop-color="#F47960"/>
</linearGradient>
<linearGradient id="paint14_linear_207_269" x1="2810.57" y1="2597.19" x2="1985.64" y2="1663.87" gradientUnits="userSpaceOnUse">
<stop stop-color="#2B3582"/>
<stop offset="1" stop-color="#150E42"/>
</linearGradient>
<linearGradient id="paint15_linear_207_269" x1="1875.39" y1="1102.67" x2="3314.98" y2="2354.75" gradientUnits="userSpaceOnUse">
<stop stop-color="#CB236D"/>
<stop offset="1" stop-color="#4C246D"/>
</linearGradient>
<linearGradient id="paint16_linear_207_269" x1="2428.9" y1="1179.54" x2="2265.92" y2="1933.34" gradientUnits="userSpaceOnUse">
<stop stop-color="#53D8FF"/>
<stop offset="1" stop-color="#3840F7"/>
</linearGradient>
<linearGradient id="paint17_linear_207_269" x1="2377.41" y1="1498.21" x2="2600.95" y2="1696.17" gradientUnits="userSpaceOnUse">
<stop stop-color="#F9B776"/>
<stop offset="1" stop-color="#F47960"/>
</linearGradient>
<linearGradient id="paint18_linear_207_269" x1="1995.41" y1="969.984" x2="3428.5" y2="2216.42" gradientUnits="userSpaceOnUse">
<stop stop-color="#CB236D"/>
<stop offset="1" stop-color="#4C246D"/>
</linearGradient>
<linearGradient id="paint19_linear_207_269" x1="1770.12" y1="1229" x2="3203.22" y2="2475.43" gradientUnits="userSpaceOnUse">
<stop stop-color="#CB236D"/>
<stop offset="1" stop-color="#4C246D"/>
</linearGradient>
<linearGradient id="paint20_linear_207_269" x1="1958.35" y1="1516.94" x2="1782.29" y2="1516.94" gradientUnits="userSpaceOnUse">
<stop stop-color="#F9B776"/>
<stop offset="1" stop-color="#F47960"/>
</linearGradient>
<linearGradient id="paint21_linear_207_269" x1="2129.47" y1="1046.46" x2="2131.4" y2="1375.23" gradientUnits="userSpaceOnUse">
<stop stop-color="#F9B776"/>
<stop offset="1" stop-color="#F47960"/>
</linearGradient>
<linearGradient id="paint22_linear_207_269" x1="2618.8" y1="1645.9" x2="1696.9" y2="1645.9" gradientUnits="userSpaceOnUse">
<stop stop-color="#2B3582"/>
<stop offset="1" stop-color="#150E42"/>
</linearGradient>
<linearGradient id="paint23_linear_207_269" x1="1795.33" y1="1237.11" x2="853.716" y2="1237.11" gradientUnits="userSpaceOnUse">
<stop stop-color="#2B3582"/>
<stop offset="1" stop-color="#150E42"/>
</linearGradient>
<linearGradient id="paint24_linear_207_269" x1="2022.79" y1="992.405" x2="2152.39" y2="1227.4" gradientUnits="userSpaceOnUse">
<stop stop-color="#F9B776"/>
<stop offset="1" stop-color="#F47960"/>
</linearGradient>
<linearGradient id="paint25_linear_207_269" x1="2137.74" y1="1061.17" x2="1946.42" y2="1033.56" gradientUnits="userSpaceOnUse">
<stop stop-color="#2B3582"/>
<stop offset="1" stop-color="#150E42"/>
</linearGradient>
<linearGradient id="paint26_linear_207_269" x1="2233.16" y1="1194.05" x2="2123.71" y2="1043.71" gradientUnits="userSpaceOnUse">
<stop stop-color="#F9B776"/>
<stop offset="1" stop-color="#F47960"/>
</linearGradient>
<linearGradient id="paint27_linear_207_269" x1="2289.13" y1="1597.9" x2="2512.67" y2="1795.86" gradientUnits="userSpaceOnUse">
<stop stop-color="#F9B776"/>
<stop offset="1" stop-color="#F47960"/>
</linearGradient>
<linearGradient id="paint28_linear_207_269" x1="1801" y1="1496.26" x2="1737.95" y2="1496.26" gradientUnits="userSpaceOnUse">
<stop stop-color="#F9B776"/>
<stop offset="1" stop-color="#F47960"/>
</linearGradient>
<linearGradient id="paint29_linear_207_269" x1="841.059" y1="866.354" x2="282.589" y2="990.739" gradientUnits="userSpaceOnUse">
<stop stop-color="#B37CFF"/>
<stop offset="1" stop-color="#F895E7"/>
</linearGradient>
<linearGradient id="paint30_linear_207_269" x1="288.204" y1="1143.89" x2="255.587" y2="1151.15" gradientUnits="userSpaceOnUse">
<stop stop-color="#B37CFF"/>
<stop offset="1" stop-color="#F895E7"/>
</linearGradient>
<linearGradient id="paint31_linear_207_269" x1="63.3931" y1="932.366" x2="41.0109" y2="937.351" gradientUnits="userSpaceOnUse">
<stop stop-color="#B37CFF"/>
<stop offset="1" stop-color="#F895E7"/>
</linearGradient>
<linearGradient id="paint32_linear_207_269" x1="554.761" y1="555.707" x2="-20.4773" y2="683.826" gradientUnits="userSpaceOnUse">
<stop stop-color="#B37CFF"/>
<stop offset="1" stop-color="#F895E7"/>
</linearGradient>
<linearGradient id="paint33_linear_207_269" x1="585.094" y1="421.679" x2="552.893" y2="428.851" gradientUnits="userSpaceOnUse">
<stop stop-color="#B37CFF"/>
<stop offset="1" stop-color="#F895E7"/>
</linearGradient>
<linearGradient id="paint34_linear_207_269" x1="5890.7" y1="5054.47" x2="7433.51" y2="6256.58" gradientUnits="userSpaceOnUse">
<stop stop-color="#A737D5"/>
<stop offset="1" stop-color="#EF497A"/>
</linearGradient>
<linearGradient id="paint35_linear_207_269" x1="1069.66" y1="327.215" x2="1053.74" y2="330.76" gradientUnits="userSpaceOnUse">
<stop stop-color="#B37CFF"/>
<stop offset="1" stop-color="#F895E7"/>
</linearGradient>
<linearGradient id="paint36_linear_207_269" x1="1115.94" y1="504.613" x2="803.953" y2="574.099" gradientUnits="userSpaceOnUse">
<stop stop-color="#B37CFF"/>
<stop offset="1" stop-color="#F895E7"/>
</linearGradient>
<linearGradient id="paint37_linear_207_269" x1="910.086" y1="236.543" x2="554" y2="315.851" gradientUnits="userSpaceOnUse">
<stop stop-color="#B37CFF"/>
<stop offset="1" stop-color="#F895E7"/>
</linearGradient>
<linearGradient id="paint38_linear_207_269" x1="944.269" y1="205.547" x2="919.916" y2="210.971" gradientUnits="userSpaceOnUse">
<stop stop-color="#B37CFF"/>
<stop offset="1" stop-color="#F895E7"/>
</linearGradient>
<linearGradient id="paint39_linear_207_269" x1="1055.03" y1="46.3283" x2="124.798" y2="1714.1" gradientUnits="userSpaceOnUse">
<stop stop-color="#A737D5"/>
<stop offset="1" stop-color="#EF497A"/>
</linearGradient>
</defs>
</svg>
