<svg width="2792" height="2774" viewBox="0 0 2792 2774" fill="none" xmlns="http://www.w3.org/2000/svg">
<path opacity="0.3" d="M2449.69 2380.27C2377.21 2454.98 2312.36 2498.9 2262.7 2532.05C1778.43 2855.41 1224.85 2762.21 1053.69 2730.35C777.56 2678.96 544.465 2642.7 344.194 2461.77C-110.88 2050.63 -88.7457 1192.95 258.986 661.66C300.217 598.664 647.423 83.9971 1202.2 11.4751C1215.77 9.70112 1225.89 8.69113 1234.76 7.75213C1320.58 -1.33487 1852.41 -49.2919 2286.06 314.021C2348.14 366.027 2448.03 459.834 2540.67 602.904C2879.39 1126.03 2880.47 1936.24 2449.69 2380.27Z" fill="url(#paint0_linear_210_377)"/>
<path d="M1938.37 1103.5C1916.92 1592.23 1471.86 1969.66 944.319 1946.5C416.774 1923.34 6.50831 1508.37 27.9643 1019.63C49.4203 530.89 494.472 153.464 1022.02 176.623C1549.56 199.783 1959.83 614.757 1938.37 1103.5Z" fill="url(#paint1_linear_210_377)"/>
<path opacity="0.19" d="M931.421 1706.41C1345.78 1706.41 1681.68 1389.09 1681.68 997.654C1681.68 606.218 1345.78 288.897 931.421 288.897C517.064 288.897 181.16 606.218 181.16 997.654C181.16 1389.09 517.064 1706.41 931.421 1706.41Z" fill="white"/>
<g opacity="0.68">
<path d="M1228 1065.84C1228 1065.84 1228.06 1080.49 1227.69 1107.97C1227.29 1135.45 1226.43 1175.75 1223.76 1226.98C1221.08 1278.19 1216.54 1340.37 1207.74 1411.3C1198.88 1482.19 1186.31 1562.03 1164.7 1647.43C1153.79 1690.07 1140.66 1734.14 1122.96 1778.33C1114.06 1800.39 1104.01 1822.48 1091.87 1843.96C1079.68 1865.34 1065.58 1886.46 1047.01 1904.32C1037.71 1913.18 1027.17 1921.16 1015.11 1926.71C1003.11 1932.29 989.39 1934.97 975.897 1933.52C962.37 1932.2 949.484 1926.85 938.251 1919.47C926.958 1912.08 917.098 1902.77 908.239 1892.68C890.545 1872.4 876.586 1849.08 864.334 1824.88C852.114 1800.62 841.735 1775.25 832.426 1749.32C813.897 1697.39 799.656 1643.15 787.832 1587.8C776.059 1532.42 766.818 1475.84 759.521 1418.58C744.977 1304.04 738.08 1186.77 737.408 1069.51C737.309 1010.89 739.296 952.276 742.455 893.973C745.701 835.674 750.506 777.686 757.106 720.354C763.736 663.032 772.14 606.352 783.002 550.816C793.909 495.306 807.128 440.852 824.604 388.629C833.37 362.539 843.251 337.021 854.938 312.57C866.705 288.206 880.158 264.671 897.459 244.254C906.127 234.113 915.81 224.754 926.947 217.407C938.02 210.062 950.741 204.867 963.997 203.677C967.248 203.384 970.711 203.326 973.873 203.444C977.232 203.618 980.487 203.995 983.735 204.552C990.214 205.72 996.487 207.749 1002.44 210.394C1014.34 215.735 1024.89 223.409 1034.28 231.989C1053.07 249.282 1067.7 269.901 1080.4 290.895C1093.06 311.977 1103.69 333.75 1113.13 355.544C1131.93 399.195 1146.08 442.926 1157.9 485.299C1181.33 570.173 1195.26 649.793 1205.08 720.551C1209.93 755.953 1213.68 789.191 1216.6 819.974C1219.44 850.764 1221.5 879.096 1223.03 904.701C1226.08 955.917 1227.11 996.225 1227.58 1023.7C1228.04 1051.18 1228 1065.84 1228 1065.84ZM1215.29 1065.83C1215.29 1065.83 1215.4 1051.25 1215.08 1023.89C1214.73 996.527 1213.89 956.392 1211.09 905.389C1209.68 879.889 1207.76 851.678 1205.07 821.013C1202.44 790.348 1199.08 757.221 1194.6 721.934C1190.11 686.654 1184.53 649.207 1177.35 609.964C1170.17 570.728 1161.47 529.666 1150.28 487.368C1139.04 445.11 1125.49 401.488 1107.37 357.994C1098.27 336.283 1088.01 314.601 1075.76 293.649C1063.49 272.782 1049.31 252.335 1031.23 235.296C1022.19 226.841 1012.08 219.319 1000.77 214.08C989.449 208.865 976.97 206.097 964.372 207.499C951.869 208.776 939.884 213.817 929.339 220.99C918.742 228.161 909.45 237.339 901.114 247.336C884.468 267.457 871.463 290.807 860.129 315.022C848.868 339.327 839.374 364.74 830.986 390.732C814.264 442.768 801.763 497.081 791.575 552.443C781.43 607.832 773.741 664.367 767.824 721.529C755.986 835.879 751.597 952.746 751.991 1069.5C751.663 1186.22 757.552 1303.05 771.06 1417.17C777.839 1474.21 786.558 1530.58 797.795 1585.73C809.081 1640.84 822.778 1694.83 840.691 1746.4C849.688 1772.15 859.74 1797.31 871.56 1821.28C883.402 1845.18 896.922 1868.13 913.821 1887.83C922.272 1897.62 931.627 1906.57 942.141 1913.57C952.615 1920.58 964.372 1925.52 976.591 1926.82C988.812 1928.17 1001.14 1925.57 1012.18 1920.37C1023.25 1915.16 1033.14 1907.59 1041.93 1899.05C1059.53 1881.84 1073.16 1861.14 1084.91 1840.07C1096.63 1818.9 1106.36 1797.03 1114.97 1775.16C1132.07 1731.33 1144.73 1687.49 1155.19 1645.05C1165.59 1602.58 1173.63 1561.4 1180.26 1522.07C1186.88 1482.74 1192.01 1445.24 1196.13 1409.91C1200.25 1374.59 1203.31 1341.43 1205.74 1310.75C1208.22 1280.06 1209.99 1251.84 1211.29 1226.33C1213.89 1175.32 1214.69 1135.17 1215.04 1107.81C1215.37 1080.45 1215.29 1065.83 1215.29 1065.83Z" fill="white"/>
<path d="M1622.2 1065.98C1622.2 1065.98 1622.1 1070.67 1621.91 1079.76C1621.81 1084.3 1621.69 1089.94 1621.55 1096.65C1621.41 1103.35 1621.35 1111.09 1620.7 1119.98C1620.17 1128.85 1619.58 1138.74 1618.93 1149.63C1618.26 1160.52 1616.82 1172.29 1615.65 1185.07C1614.62 1197.87 1612.49 1211.5 1610.53 1226.08C1608.79 1240.7 1605.77 1256.05 1602.94 1272.33C1602.19 1276.39 1601.54 1280.52 1600.69 1284.68C1599.79 1288.82 1598.88 1293.02 1597.95 1297.27C1596.1 1305.76 1594.21 1314.48 1592.26 1323.39C1589.99 1332.23 1587.67 1341.28 1585.29 1350.52C1584.09 1355.14 1582.88 1359.82 1581.66 1364.54C1580.26 1369.21 1578.84 1373.93 1577.41 1378.7C1566.36 1416.96 1551.47 1457.5 1532.86 1499.57C1514.18 1541.61 1491.35 1585.1 1463.12 1628.33C1434.9 1671.53 1401.26 1714.47 1361.32 1754.65C1321.62 1795.05 1274.65 1831.61 1221.81 1862.2C1215.34 1866.27 1208.39 1869.54 1201.58 1873.13C1198.16 1874.9 1194.73 1876.67 1191.3 1878.45L1186.14 1881.11C1184.41 1881.98 1182.61 1882.7 1180.84 1883.51C1173.75 1886.66 1166.62 1889.81 1159.47 1892.99C1157.67 1893.76 1155.91 1894.61 1154.08 1895.33L1148.57 1897.38C1144.88 1898.75 1141.19 1900.12 1137.5 1901.5C1122.86 1907.42 1107.44 1911.41 1092.16 1916.17C1084.4 1918.1 1076.55 1919.85 1068.71 1921.71C1064.77 1922.57 1060.88 1923.65 1056.89 1924.34C1052.9 1925 1048.9 1925.66 1044.9 1926.32C1040.9 1926.98 1036.88 1927.65 1032.87 1928.31C1028.85 1928.99 1024.83 1929.7 1020.75 1929.99C1012.62 1930.79 1004.46 1931.59 996.276 1932.4C992.192 1932.92 988.066 1932.92 983.945 1933.07C979.823 1933.21 975.693 1933.33 971.556 1933.47C967.421 1933.6 963.278 1933.73 959.13 1933.86C954.771 1933.87 950.815 1933.64 946.627 1933.55C938.353 1933.22 930.079 1933.2 921.734 1932.63C913.366 1931.82 904.973 1931 896.556 1930.19L890.238 1929.56L883.987 1928.53C879.816 1927.85 875.64 1927.16 871.457 1926.47C867.274 1925.78 863.086 1925.1 858.891 1924.41C854.707 1923.66 850.593 1922.54 846.431 1921.62C813.031 1914.66 780.243 1903.42 748.343 1889.61L736.393 1884.32L730.407 1881.67L724.584 1878.68C716.815 1874.67 709.028 1870.65 701.224 1866.63C686.109 1857.71 670.678 1849.11 656.191 1838.91C648.834 1833.98 641.351 1829.2 634.35 1823.71C627.257 1818.35 620.025 1813.13 613.004 1807.62C606.146 1801.91 599.275 1796.18 592.392 1790.45L587.24 1786.13L582.299 1781.56L572.402 1772.41L562.486 1763.24C559.237 1760.12 556.154 1756.83 552.976 1753.62C546.715 1747.13 540.221 1740.82 534.12 1734.13C528.106 1727.36 522.083 1720.58 516.05 1713.78C512.971 1710.44 510.104 1706.91 507.272 1703.35L498.693 1692.72L490.101 1682.07C487.272 1678.49 484.663 1674.74 481.931 1671.07C476.557 1663.68 471.032 1656.37 465.758 1648.88C455.628 1633.6 445.129 1618.48 435.88 1602.53C426.036 1586.93 417.498 1570.53 408.54 1554.32C404.263 1546.11 400.279 1537.74 396.128 1529.44L389.959 1516.94L384.302 1504.2C380.566 1495.69 376.67 1487.23 373.054 1478.64C369.623 1469.98 366.19 1461.3 362.753 1452.62C359.167 1444 356.212 1435.14 353.109 1426.31L348.472 1413.07C346.928 1408.65 345.325 1404.25 344.028 1399.75C338.554 1381.83 332.877 1363.94 328.428 1345.69L324.874 1332.05L323.097 1325.23L321.569 1318.35L315.524 1290.78L314.012 1283.88L312.753 1276.94L310.265 1263.03L307.777 1249.11C306.917 1244.48 306.109 1239.84 305.53 1235.16C303.032 1216.47 300.136 1197.81 298.617 1178.98C294.468 1141.43 293.354 1103.62 292.769 1065.84L293.357 1037.55L293.65 1023.48C293.752 1018.79 294.159 1014.03 294.399 1009.31L296.084 980.923C296.694 971.474 297.841 962.116 298.694 952.709C300.225 933.886 303.134 915.233 305.644 896.547C306.226 891.867 307.038 887.225 307.902 882.591L310.4 868.681L312.898 854.777L314.163 847.832L315.68 840.936L321.746 813.378L323.279 806.498L325.062 799.677L328.627 786.049C333.09 767.799 338.779 749.913 344.267 732.011C345.566 727.514 347.174 723.115 348.721 718.7L353.368 705.462C356.478 696.645 359.439 687.786 363.031 679.162C366.474 670.49 369.915 661.823 373.351 653.164C376.973 644.583 380.875 636.13 384.617 627.622L390.283 614.888L396.46 602.407C400.618 594.115 404.606 585.747 408.89 577.543C417.858 561.345 426.407 544.967 436.259 529.382C445.516 513.443 456.026 498.346 466.158 483.085C471.434 475.596 476.96 468.296 482.336 460.912C485.069 457.254 487.678 453.505 490.509 449.929L499.103 439.293L507.683 428.673C510.515 425.117 513.383 421.593 516.462 418.253C522.495 411.468 528.519 404.693 534.532 397.932C540.633 391.249 547.126 384.949 553.386 378.463C556.564 375.264 559.646 371.977 562.894 368.863L572.807 359.709L582.701 350.573L587.641 346.014L592.791 341.699C599.672 335.973 606.541 330.257 613.396 324.552C620.415 319.054 627.643 313.847 634.732 308.5C641.73 303.023 649.206 298.244 656.563 293.333C671.05 283.161 686.477 274.595 701.585 265.712C709.386 261.705 717.168 257.708 724.933 253.719L730.753 250.733L736.734 248.098L748.675 242.841C780.56 229.127 813.277 217.88 846.612 210.886C879.851 203.757 913.394 199.077 946.676 198.887C950.867 198.79 954.899 198.551 959.204 198.571C963.325 198.704 967.44 198.838 971.548 198.971C975.657 199.105 979.758 199.238 983.854 199.371C987.95 199.525 992.033 199.53 996.135 200.053C1004.33 200.866 1012.5 201.675 1020.63 202.482C1024.72 202.782 1028.73 203.487 1032.74 204.172C1036.75 204.839 1040.76 205.504 1044.75 206.17C1048.75 206.835 1052.74 207.501 1056.72 208.164C1060.7 208.847 1064.59 209.937 1068.52 210.801C1076.35 212.661 1084.18 214.411 1091.93 216.345C1107.19 221.104 1122.56 225.137 1137.19 231.011C1140.88 232.378 1144.57 233.741 1148.25 235.103L1153.76 237.145C1155.58 237.856 1157.34 238.702 1159.14 239.474C1166.29 242.63 1173.41 245.774 1180.5 248.905C1182.26 249.705 1184.06 250.431 1185.79 251.291L1190.94 253.944C1194.37 255.711 1197.8 257.474 1201.22 259.234C1208.02 262.813 1214.97 266.068 1221.44 270.121C1274.28 300.585 1321.2 337.112 1360.91 377.44C1400.84 417.558 1434.48 460.459 1462.72 503.612C1490.97 546.791 1513.83 590.249 1532.54 632.256C1551.18 674.295 1566.1 714.809 1577.18 753.056C1578.61 757.822 1580.03 762.538 1581.44 767.209C1582.66 771.929 1583.88 776.596 1585.08 781.214C1587.46 790.457 1589.79 799.5 1592.07 808.336C1594.02 817.248 1595.92 825.957 1597.78 834.452C1598.71 838.703 1599.62 842.898 1600.53 847.041C1601.38 851.19 1602.03 855.327 1602.78 859.388C1605.62 875.658 1608.65 891.004 1610.41 905.616C1612.38 920.195 1614.52 933.827 1615.56 946.619C1616.73 959.395 1618.19 971.188 1618.87 982.044C1619.52 992.899 1620.12 1002.76 1620.65 1011.59C1621.31 1020.42 1621.37 1028.24 1621.52 1034.99C1621.67 1041.74 1621.79 1047.41 1621.89 1051.98C1622.09 1061.13 1622.19 1065.84 1622.19 1065.84L1622.2 1065.98ZM1607.63 1065.84C1607.63 1065.84 1607.56 1061.18 1607.41 1052.15C1607.33 1047.64 1607.24 1042.03 1607.13 1035.37C1607.01 1028.7 1606.99 1020.98 1606.38 1012.26C1605.9 1003.53 1605.36 993.79 1604.77 983.062C1604.16 972.338 1602.77 960.686 1601.68 948.063C1600.72 935.418 1598.67 921.947 1596.8 907.538C1595.14 893.094 1592.22 877.928 1589.49 861.841C1588.78 857.826 1588.15 853.739 1587.33 849.632C1586.46 845.538 1585.57 841.389 1584.68 837.19C1582.89 828.789 1581.05 820.179 1579.18 811.362C1576.97 802.624 1574.71 793.682 1572.4 784.544C1571.24 779.975 1570.07 775.357 1568.88 770.69C1567.51 766.075 1566.14 761.408 1564.74 756.694C1554.15 718.818 1539.96 678.615 1522.01 636.864C1504.02 595.14 1481.94 551.924 1454.51 508.909C1427.09 465.923 1394.31 423.134 1355.27 383.006C1316.41 342.745 1270.55 305.839 1218.37 275.47C1211.99 271.414 1205.14 268.158 1198.43 264.572C1195.06 262.809 1191.68 261.042 1188.3 259.27L1183.22 256.612C1181.51 255.748 1179.73 255.021 1177.99 254.218C1171 251.075 1163.97 247.92 1156.92 244.751C1155.15 243.978 1153.41 243.127 1151.61 242.411L1146.17 240.359C1142.54 238.989 1138.9 237.616 1135.25 236.241C1120.82 230.295 1105.59 226.359 1090.51 221.597C1082.84 219.673 1075.1 217.931 1067.35 216.077C1063.47 215.215 1059.62 214.128 1055.68 213.445C1051.74 212.783 1047.79 212.121 1043.84 211.455C1039.89 210.791 1035.93 210.126 1031.96 209.457C1027.99 208.774 1024.02 208.067 1020.01 207.771C1012 206.961 1003.96 206.149 995.893 205.334C991.883 204.808 987.771 204.795 983.68 204.636C979.585 204.495 975.483 204.356 971.374 204.217C967.266 204.076 963.151 203.937 959.03 203.796C955.093 203.786 950.869 204.042 946.793 204.152C913.855 204.45 880.69 209.203 847.837 216.366C814.885 223.367 782.555 234.624 751.167 248.515L739.406 253.813L733.516 256.466L727.785 259.47C720.143 263.477 712.483 267.495 704.806 271.52C689.94 280.44 674.768 289.024 660.531 299.209C653.304 304.13 646 308.971 639.149 314.48C632.214 319.863 625.145 325.101 618.284 330.627C611.588 336.356 604.879 342.097 598.158 347.849L593.13 352.179L588.31 356.753L578.66 365.914L568.993 375.085C565.827 378.205 562.825 381.499 559.73 384.702C553.634 391.198 547.309 397.498 541.374 404.178C535.528 410.94 529.671 417.708 523.805 424.493C520.811 427.83 518.027 431.35 515.278 434.903L506.95 445.503L498.61 456.116C495.864 459.685 493.339 463.425 490.69 467.073C485.483 474.438 480.127 481.714 475.021 489.177C465.224 504.388 455.055 519.413 446.134 535.277C436.621 550.78 428.407 567.076 419.775 583.17C415.661 591.321 411.837 599.634 407.848 607.87L401.922 620.26L396.504 632.902C392.927 641.348 389.192 649.736 385.735 658.248C382.462 666.832 379.186 675.426 375.907 684.027C372.479 692.572 369.68 701.356 366.732 710.091L362.328 723.205C360.862 727.577 359.336 731.933 358.115 736.387C352.994 754.132 347.43 771.769 343.214 789.812L339.813 803.276L338.111 810.011L336.657 816.805L330.906 844.022L329.466 850.83L328.278 857.687L325.932 871.414L323.584 885.144C322.767 889.716 322.012 894.298 321.468 898.917C319.057 917.344 316.244 935.738 314.8 954.299C313.991 963.562 312.883 972.827 312.319 982.09L310.758 1009.87C310.537 1014.52 310.148 1019.11 310.062 1023.8L309.815 1037.86L309.323 1065.84C309.61 1140.34 316.571 1214.85 331.066 1287.63L336.839 1314.83L338.298 1321.63L340.005 1328.36L343.417 1341.82C347.647 1359.85 353.223 1377.48 358.358 1395.22C359.582 1399.67 361.112 1404.02 362.582 1408.4L366.996 1421.5C369.95 1430.23 372.756 1439.01 376.191 1447.55C379.476 1456.14 382.759 1464.73 386.038 1473.31C389.501 1481.82 393.243 1490.2 396.826 1498.64L402.253 1511.27L408.187 1523.65C412.182 1531.88 416.011 1540.19 420.131 1548.33C428.774 1564.41 436.998 1580.69 446.52 1596.18C455.449 1612.03 465.629 1627.03 475.429 1642.23C480.537 1649.68 485.895 1656.95 491.103 1664.31C493.753 1667.95 496.279 1671.69 499.026 1675.25L507.368 1685.85L515.697 1696.44C518.446 1699.99 521.231 1703.51 524.225 1706.84C530.091 1713.61 535.947 1720.38 541.795 1727.12C547.73 1733.8 554.054 1740.09 560.149 1746.58C563.245 1749.77 566.245 1753.06 569.411 1756.18L579.075 1765.33L588.723 1774.48L593.541 1779.05L598.567 1783.37C605.286 1789.11 611.992 1794.84 618.685 1800.56C625.543 1806.08 632.608 1811.3 639.54 1816.68C646.387 1822.18 653.685 1827.01 660.911 1831.92C675.148 1842.07 690.316 1850.62 705.175 1859.5C712.848 1863.51 720.504 1867.51 728.142 1871.5L733.868 1874.49L739.755 1877.13L751.506 1882.4C782.879 1896.19 815.138 1907.45 848.025 1914.49C852.122 1915.42 856.174 1916.54 860.294 1917.3C864.425 1918 868.551 1918.7 872.671 1919.4C876.792 1920.1 880.906 1920.8 885.015 1921.5L891.174 1922.55L897.357 1923.19C905.598 1924.04 913.815 1924.89 922.008 1925.73C930.257 1926.34 938.598 1926.42 946.849 1926.78C950.93 1926.89 955.229 1927.16 959.111 1927.14C963.205 1927 967.292 1926.86 971.373 1926.71C975.454 1926.57 979.528 1926.43 983.596 1926.29C987.662 1926.12 991.731 1926.11 995.759 1925.58C1003.83 1924.76 1011.88 1923.94 1019.9 1923.12C1023.92 1922.82 1027.88 1922.11 1031.84 1921.43C1035.8 1920.76 1039.75 1920.09 1043.7 1919.42C1047.65 1918.75 1051.59 1918.09 1055.52 1917.43C1059.45 1916.74 1063.29 1915.65 1067.17 1914.79C1074.9 1912.93 1082.63 1911.18 1090.28 1909.26C1105.34 1904.5 1120.53 1900.52 1134.95 1894.62C1138.59 1893.26 1142.22 1891.89 1145.85 1890.53L1151.29 1888.49C1153.08 1887.77 1154.82 1886.93 1156.59 1886.16C1163.64 1883.01 1170.66 1879.87 1177.65 1876.74C1179.39 1875.94 1181.16 1875.21 1182.87 1874.36L1187.95 1871.71C1191.33 1869.95 1194.71 1868.18 1198.08 1866.43C1204.78 1862.86 1211.63 1859.62 1218 1855.58C1270.18 1825.34 1315.99 1788.46 1354.85 1748.27C1393.89 1708.2 1426.68 1665.46 1454.12 1622.52C1481.56 1579.55 1503.67 1536.37 1521.69 1494.68C1539.68 1452.96 1553.9 1412.78 1564.52 1374.93C1565.91 1370.21 1567.3 1365.55 1568.66 1360.93C1569.85 1356.27 1571.03 1351.66 1572.2 1347.09C1574.51 1337.95 1576.78 1329.01 1578.99 1320.28C1580.87 1311.47 1582.71 1302.86 1584.51 1294.46C1585.41 1290.26 1586.3 1286.12 1587.17 1282.02C1587.99 1277.92 1588.62 1273.83 1589.34 1269.82C1592.08 1253.74 1595.01 1238.57 1596.68 1224.13C1598.56 1209.72 1600.62 1196.26 1601.59 1183.62C1602.69 1171 1604.09 1159.33 1604.7 1148.64C1605.3 1137.94 1605.85 1128.23 1606.34 1119.53C1606.95 1110.87 1606.98 1103.08 1607.1 1096.37C1607.22 1089.67 1607.32 1084.03 1607.39 1079.48C1607.55 1070.4 1607.63 1065.71 1607.63 1065.71V1065.84Z" fill="white"/>
<path d="M183.657 722.383C183.657 722.383 208.567 722.127 252.158 721.678C295.75 721.354 358.024 720.895 432.752 720.344C507.481 720.02 594.664 719.643 688.075 719.24C781.486 719.099 881.124 718.952 980.762 718.804C1080.4 718.981 1180.04 719.158 1273.45 719.322C1320.15 719.505 1365.3 719.682 1408.12 719.853C1450.93 720.086 1491.41 720.309 1528.77 720.512C1603.5 720.846 1665.77 721.633 1709.37 721.944C1752.96 722.423 1777.87 722.698 1777.87 722.698C1778.22 722.701 1778.51 722.993 1778.5 723.347C1778.5 723.698 1778.22 723.98 1777.87 723.983C1777.87 723.983 1752.96 724.258 1709.37 724.74C1665.77 725.051 1603.5 725.835 1528.77 726.169C1491.41 726.375 1450.93 726.595 1408.12 726.831C1365.3 726.998 1320.15 727.175 1273.45 727.359C1180.04 727.526 1080.4 727.703 980.762 727.877C881.124 727.73 781.486 727.582 688.075 727.444C594.664 727.038 507.481 726.661 432.752 726.339C358.024 725.785 295.75 725.326 252.158 725.005C208.566 724.556 183.657 724.297 183.657 724.297C183.128 724.294 182.704 723.858 182.71 723.33C182.715 722.809 183.138 722.389 183.657 722.383Z" fill="white"/>
<path d="M414.841 388.612C414.841 388.612 432.526 388.356 463.475 387.907C494.423 387.582 538.636 387.124 591.691 386.573C618.219 386.389 646.957 386.193 677.353 385.983C707.749 385.803 739.803 385.465 772.963 385.468C839.282 385.327 910.022 385.18 980.762 385.032C1051.5 385.209 1122.24 385.386 1188.56 385.55C1221.72 385.579 1253.77 385.825 1284.17 386.081C1314.57 386.314 1343.31 386.537 1369.83 386.74C1422.89 387.074 1467.1 387.861 1498.05 388.172C1529 388.651 1546.68 388.926 1546.68 388.926C1547.04 388.933 1547.32 389.224 1547.32 389.578C1547.31 389.925 1547.03 390.207 1546.68 390.211C1546.68 390.211 1529 390.486 1498.05 390.968C1467.1 391.279 1422.89 392.063 1369.83 392.397C1343.31 392.603 1314.57 392.823 1284.17 393.059C1253.77 393.315 1221.72 393.557 1188.56 393.587C1122.24 393.754 1051.5 393.928 980.762 394.105C910.022 393.958 839.282 393.81 772.963 393.672C739.803 393.672 707.749 393.334 677.353 393.157C646.957 392.947 618.219 392.747 591.691 392.567C538.636 392.013 494.423 391.554 463.475 391.233C432.526 390.784 414.841 390.525 414.841 390.525C414.312 390.518 413.89 390.082 413.898 389.555C413.905 389.038 414.325 388.622 414.841 388.612Z" fill="white"/>
<path d="M114.406 1056.15C114.406 1056.15 141.48 1055.9 188.859 1055.45C236.237 1055.12 303.922 1054.67 385.142 1054.11C466.363 1053.79 561.121 1053.41 662.647 1053.01C764.173 1052.87 872.467 1052.72 980.762 1052.57C1089.06 1052.75 1197.35 1052.93 1298.88 1053.09C1349.64 1053.28 1398.71 1053.45 1445.24 1053.62C1491.78 1053.86 1535.77 1054.08 1576.38 1054.28C1657.6 1054.87 1725.29 1055.37 1772.67 1055.71C1820.04 1056.19 1847.12 1056.47 1847.12 1056.47C1847.47 1056.47 1847.76 1056.76 1847.75 1057.12C1847.75 1057.47 1847.47 1057.75 1847.12 1057.75C1847.12 1057.75 1820.04 1058.03 1772.67 1058.51C1725.29 1058.85 1657.6 1059.35 1576.38 1059.94C1535.77 1060.14 1491.78 1060.36 1445.24 1060.6C1398.71 1060.77 1349.64 1060.94 1298.88 1061.13C1197.35 1061.3 1089.06 1061.47 980.762 1061.65C872.468 1061.5 764.173 1061.35 662.647 1061.21C561.121 1060.81 466.363 1060.43 385.142 1060.11C303.922 1059.56 236.237 1059.1 188.859 1058.78C141.48 1058.33 114.406 1058.07 114.406 1058.07C113.877 1058.06 113.453 1057.63 113.458 1057.1C113.463 1056.58 113.887 1056.16 114.406 1056.15Z" fill="white"/>
<path d="M183.657 1389.92C183.657 1389.92 208.567 1389.67 252.158 1389.22C295.75 1388.89 358.024 1388.43 432.752 1387.88C507.481 1387.56 594.664 1387.18 688.075 1386.78C781.486 1386.64 881.124 1386.49 980.762 1386.34C1080.4 1386.52 1180.04 1386.7 1273.45 1386.86C1320.15 1387.05 1365.3 1387.22 1408.12 1387.39C1450.93 1387.63 1491.41 1387.85 1528.77 1388.05C1603.5 1388.39 1665.77 1389.17 1709.37 1389.48C1752.96 1389.96 1777.87 1390.24 1777.87 1390.24C1778.22 1390.24 1778.51 1390.53 1778.5 1390.89C1778.5 1391.24 1778.22 1391.52 1777.87 1391.52C1777.87 1391.52 1752.96 1391.8 1709.37 1392.28C1665.77 1392.59 1603.5 1393.37 1528.77 1393.71C1491.41 1393.91 1450.93 1394.13 1408.12 1394.37C1365.3 1394.54 1320.15 1394.71 1273.45 1394.9C1180.04 1395.07 1080.4 1395.24 980.762 1395.42C881.124 1395.27 781.486 1395.12 688.075 1394.98C594.664 1394.58 507.481 1394.2 432.752 1393.88C358.024 1393.32 295.75 1392.87 252.158 1392.54C208.566 1392.1 183.657 1391.84 183.657 1391.84C183.128 1391.83 182.704 1391.4 182.71 1390.87C182.715 1390.35 183.138 1389.93 183.657 1389.92Z" fill="white"/>
<path d="M1575.2 1728.01H443.356C441.503 1728.01 440 1726.51 440 1724.65C440 1722.8 441.503 1721.29 443.356 1721.29H1575.2C1577.05 1721.29 1578.55 1722.8 1578.55 1724.65C1578.55 1726.51 1577.05 1728.01 1575.2 1728.01Z" fill="white"/>
</g>
<path d="M252.934 1134.91V2376.3C252.934 2478.42 326.357 2561.93 418.465 2564.56C827.56 2576.25 2258.38 2604.6 2647.81 2598.24C2714.74 2597.15 2768.96 2537.78 2770.89 2463.62C2778.4 2175.23 2790.6 1481.75 2745.47 1159.79C2735.96 1091.99 2684.33 1041.29 2622.45 1039.1C2279.68 1026.94 762.919 988.352 373.669 998.04C306.539 999.712 252.934 1060.49 252.934 1134.91Z" fill="url(#paint2_linear_210_377)"/>
<path d="M323.214 1128.87V2308.27C323.214 2367.89 366.397 2416.48 420.187 2417.37L2591.78 2447.1C2645.11 2447.99 2688.83 2400.44 2689.02 2341.32L2692.66 1172.46C2692.8 1130.2 2662.42 1095.56 2624.29 1094.54L400.98 1044.75C358.34 1043.6 323.214 1081.6 323.214 1128.87Z" fill="url(#paint3_linear_210_377)"/>
<path opacity="0.12" d="M403.254 1169.09V2237.31C403.254 2291.32 443.814 2335.32 494.337 2336.13L2534.03 2363.06C2584.12 2363.86 2625.17 2320.79 2625.36 2267.25L2628.77 1208.57C2628.91 1170.29 2600.37 1138.92 2564.56 1137.99L476.298 1092.9C436.247 1091.86 403.254 1126.27 403.254 1169.09Z" fill="white"/>
<path opacity="0.65" d="M2705.37 2495.12C2705.35 2495.12 2705.34 2495.12 2705.31 2495.12L323.156 2450.13C321.491 2450.1 320.165 2448.73 320.196 2447.06C320.228 2445.39 321.575 2444.18 323.27 2444.1L2705.43 2489.09C2707.09 2489.12 2708.42 2490.49 2708.39 2492.16C2708.36 2493.81 2707.01 2495.12 2705.37 2495.12Z" fill="white"/>
<path d="M766.987 1919.79C694.581 1919.01 633.312 1861.4 627.499 1788.63L614.272 1623.33C611.122 1583.9 624.079 1545.27 649.821 1517.35C674.461 1490.61 708.143 1475.85 744.666 1475.78L2035.26 1473.41C2075.68 1473.41 2110.98 1489.55 2134.92 1518.87C2159.43 1548.87 2168.67 1589.66 2160.3 1630.78L2124.97 1804.15C2110.29 1876.21 2040.1 1932.66 1965.2 1932.66C1965.2 1932.66 766.987 1919.79 766.987 1919.79Z" fill="url(#paint4_linear_210_377)"/>
<path d="M2035.32 1506.97L744.729 1509.34C686.189 1509.45 642.899 1560.2 647.729 1620.65L660.956 1785.96C665.383 1841.37 712.898 1885.65 767.348 1886.23L1963.95 1899.09C2023.06 1899.73 2080.28 1855.35 2092.08 1797.45L2127.41 1624.08C2140.34 1560.64 2099.28 1506.85 2035.32 1506.97Z" fill="url(#paint5_linear_210_377)"/>
<path d="M1044.38 1626.13L984.813 1808.1H984.579C981.765 1817.02 974.73 1823.35 966.991 1825.22H966.756C966.522 1825.22 966.054 1825.46 965.818 1825.46H965.349C965.115 1825.46 964.88 1825.69 964.646 1825.69H964.177H963.471H963.002H962.299H961.83H961.127H960.657H960.188H959.485H959.016C958.782 1825.69 958.548 1825.46 958.312 1825.46H957.843C957.609 1825.46 957.14 1825.22 956.906 1825.22H956.672C948.933 1823.35 941.897 1817.02 938.849 1808.1L901.328 1693.43L863.807 1808.1C860.993 1817.02 853.958 1823.35 846.219 1825.22H845.984C845.514 1825.22 845.281 1825.46 845.046 1825.46H844.577C844.343 1825.46 844.108 1825.69 843.874 1825.69H843.403H842.7H842.231H841.528H841.059H840.354H839.885H839.182H838.714H838.244C838.01 1825.69 837.775 1825.46 837.541 1825.46H837.072C836.603 1825.46 836.369 1825.22 836.135 1825.22H835.9C827.926 1823.35 821.125 1817.02 818.075 1808.1L758.512 1626.13V1625.66C757.573 1622.85 757.104 1619.8 757.104 1616.99C757.104 1606.2 763.437 1596.11 773.285 1592.6C775.63 1591.66 778.209 1591.42 780.554 1591.42C790.638 1591.42 800.252 1598.46 803.537 1609.48C803.771 1609.95 824.173 1672.09 841.058 1723.68C857.941 1672.09 878.343 1609.95 878.343 1609.48C880.924 1601.51 886.316 1595.88 892.882 1593.07L893.116 1592.83C893.35 1592.83 893.587 1592.6 893.822 1592.6H894.056C894.29 1592.6 894.29 1592.36 894.525 1592.36H894.994C895.228 1592.13 895.463 1592.13 895.697 1592.13L895.932 1591.89C896.401 1591.89 896.636 1591.89 896.87 1591.66H897.104C897.573 1591.66 897.807 1591.66 898.041 1591.42H898.275H899.214H899.448C899.917 1591.42 900.151 1591.42 900.385 1591.19H900.854H901.323H902.026H902.495C902.729 1591.42 902.964 1591.42 903.198 1591.42H903.668H904.605C905.074 1591.66 905.308 1591.66 905.777 1591.66C906.248 1591.89 906.482 1591.89 906.716 1591.89C906.951 1591.89 906.952 1591.89 906.952 1592.13C907.421 1592.13 907.655 1592.13 907.89 1592.36H908.359C908.359 1592.36 908.594 1592.6 908.828 1592.6H909.063C909.297 1592.6 909.532 1592.83 909.766 1592.83L910.001 1593.07C916.568 1595.88 921.962 1601.51 924.542 1609.48C924.542 1609.95 944.943 1672.09 961.828 1723.68C978.713 1672.09 999.114 1609.95 999.114 1609.48C1002.63 1598.46 1012.25 1591.42 1022.33 1591.42C1024.67 1591.42 1027.25 1591.66 1029.6 1592.6C1039.45 1596.11 1045.78 1606.2 1045.78 1616.99C1045.78 1619.8 1045.31 1622.85 1044.37 1625.66V1626.13H1044.38Z" fill="white"/>
<path d="M1344.8 1626.13L1285.23 1808.1H1285C1282.18 1817.02 1275.15 1823.35 1267.41 1825.22H1267.18C1266.94 1825.22 1266.47 1825.46 1266.24 1825.46H1265.77C1265.53 1825.46 1265.3 1825.69 1265.07 1825.69H1264.6H1263.89H1263.42H1262.72H1262.25H1261.55H1261.08H1260.61H1259.91H1259.44C1259.2 1825.69 1258.97 1825.46 1258.73 1825.46H1258.26C1258.03 1825.46 1257.56 1825.22 1257.33 1825.22H1257.09C1249.35 1823.35 1242.32 1817.02 1239.27 1808.1L1201.75 1693.43L1164.23 1808.1C1161.41 1817.02 1154.38 1823.35 1146.64 1825.22H1146.4C1145.93 1825.22 1145.7 1825.46 1145.47 1825.46H1145C1144.76 1825.46 1144.53 1825.69 1144.29 1825.69H1143.83H1143.12H1142.65H1141.95H1141.48H1140.78H1140.31H1139.6H1139.13H1138.66C1138.43 1825.69 1138.2 1825.46 1137.96 1825.46H1137.49C1137.02 1825.46 1136.79 1825.22 1136.56 1825.22H1136.32C1128.35 1823.35 1121.55 1817.02 1118.5 1808.1L1058.93 1626.13V1625.66C1058 1622.85 1057.53 1619.8 1057.53 1616.99C1057.53 1606.2 1063.86 1596.11 1073.71 1592.6C1076.05 1591.66 1078.63 1591.42 1080.98 1591.42C1091.06 1591.42 1100.67 1598.46 1103.96 1609.48C1104.19 1609.95 1124.6 1672.09 1141.48 1723.68C1158.36 1672.09 1178.77 1609.95 1178.77 1609.48C1181.35 1601.51 1186.74 1595.88 1193.3 1593.07L1193.54 1592.83C1193.77 1592.83 1194.01 1592.6 1194.24 1592.6H1194.48C1194.71 1592.6 1194.71 1592.36 1194.95 1592.36H1195.42C1195.65 1592.13 1195.88 1592.13 1196.12 1592.13L1196.35 1591.89C1196.82 1591.89 1197.06 1591.89 1197.29 1591.66H1197.53C1198 1591.66 1198.23 1591.66 1198.46 1591.42H1198.7H1199.64H1199.87C1200.34 1591.42 1200.57 1591.42 1200.81 1591.19H1201.28H1201.75H1202.45H1202.92C1203.15 1591.42 1203.39 1591.42 1203.62 1591.42H1204.09H1205.03C1205.5 1591.66 1205.73 1591.66 1206.2 1591.66C1206.67 1591.89 1206.91 1591.89 1207.14 1591.89C1207.38 1591.89 1207.38 1591.89 1207.38 1592.13C1207.84 1592.13 1208.08 1592.13 1208.31 1592.36H1208.78C1208.78 1592.36 1209.02 1592.6 1209.25 1592.6H1209.49C1209.72 1592.6 1209.95 1592.83 1210.19 1592.83L1210.42 1593.07C1216.99 1595.88 1222.38 1601.51 1224.96 1609.48C1224.96 1609.95 1245.36 1672.09 1262.25 1723.68C1279.13 1672.09 1299.53 1609.95 1299.53 1609.48C1303.05 1598.46 1312.67 1591.42 1322.75 1591.42C1325.09 1591.42 1327.67 1591.66 1330.02 1592.6C1339.87 1596.11 1346.2 1606.2 1346.2 1616.99C1346.2 1619.8 1345.73 1622.85 1344.79 1625.66V1626.13H1344.8Z" fill="white"/>
<path d="M1645.22 1626.13L1585.65 1808.1H1585.42C1582.6 1817.02 1575.57 1823.35 1567.83 1825.22H1567.6C1567.36 1825.22 1566.89 1825.46 1566.66 1825.46H1566.19C1565.95 1825.46 1565.72 1825.69 1565.48 1825.69H1565.02H1564.31H1563.84H1563.14H1562.67H1561.97H1561.5H1561.03H1560.33H1559.86C1559.62 1825.69 1559.39 1825.46 1559.15 1825.46H1558.68C1558.45 1825.46 1557.98 1825.22 1557.75 1825.22H1557.51C1549.77 1823.35 1542.74 1817.02 1539.69 1808.1L1502.17 1693.43L1464.65 1808.1C1461.83 1817.02 1454.8 1823.35 1447.06 1825.22H1446.83C1446.36 1825.22 1446.12 1825.46 1445.89 1825.46H1445.42C1445.18 1825.46 1444.95 1825.69 1444.72 1825.69H1444.25H1443.54H1443.07H1442.37H1441.9H1441.2H1440.73H1440.02H1439.56H1439.08C1438.85 1825.69 1438.62 1825.46 1438.38 1825.46H1437.91C1437.44 1825.46 1437.21 1825.22 1436.98 1825.22H1436.74C1428.77 1823.35 1421.97 1817.02 1418.92 1808.1L1359.35 1626.13V1625.66C1358.42 1622.85 1357.95 1619.8 1357.95 1616.99C1357.95 1606.2 1364.28 1596.11 1374.13 1592.6C1376.47 1591.66 1379.05 1591.42 1381.4 1591.42C1391.48 1591.42 1401.09 1598.46 1404.38 1609.48C1404.61 1609.95 1425.01 1672.09 1441.9 1723.68C1458.78 1672.09 1479.18 1609.95 1479.18 1609.48C1481.77 1601.51 1487.16 1595.88 1493.72 1593.07L1493.96 1592.83C1494.19 1592.83 1494.43 1592.6 1494.66 1592.6H1494.9C1495.13 1592.6 1495.13 1592.36 1495.37 1592.36H1495.83C1496.07 1592.13 1496.3 1592.13 1496.54 1592.13L1496.77 1591.89C1497.24 1591.89 1497.48 1591.89 1497.71 1591.66H1497.94C1498.41 1591.66 1498.65 1591.66 1498.88 1591.42H1499.12H1500.06H1500.29C1500.76 1591.42 1500.99 1591.42 1501.23 1591.19H1501.7H1502.17H1502.87H1503.34C1503.57 1591.42 1503.81 1591.42 1504.04 1591.42H1504.51H1505.45C1505.92 1591.66 1506.15 1591.66 1506.62 1591.66C1507.09 1591.89 1507.33 1591.89 1507.56 1591.89C1507.79 1591.89 1507.79 1591.89 1507.79 1592.13C1508.26 1592.13 1508.5 1592.13 1508.73 1592.36H1509.2C1509.2 1592.36 1509.44 1592.6 1509.67 1592.6H1509.9C1510.14 1592.6 1510.37 1592.83 1510.61 1592.83L1510.84 1593.07C1517.41 1595.88 1522.8 1601.51 1525.38 1609.48C1525.38 1609.95 1545.78 1672.09 1562.67 1723.68C1579.55 1672.09 1599.95 1609.95 1599.95 1609.48C1603.47 1598.46 1613.08 1591.42 1623.17 1591.42C1625.51 1591.42 1628.09 1591.66 1630.44 1592.6C1640.29 1596.11 1646.62 1606.2 1646.62 1616.99C1646.62 1619.8 1646.15 1622.85 1645.21 1625.66V1626.13H1645.22Z" fill="white"/>
<path d="M1708.99 1829.29C1708.99 1834.85 1704.48 1839.36 1698.92 1839.36C1693.36 1839.36 1688.85 1834.85 1688.85 1829.29V1550.72C1688.85 1545.16 1693.36 1540.65 1698.92 1540.65C1704.48 1540.65 1708.99 1545.16 1708.99 1550.72V1829.29Z" fill="white"/>
<path d="M2241.42 2061.13L2091.23 1877.89C2090.05 1876.45 2089.69 1874.49 2090.29 1872.72C2090.88 1870.94 2092.35 1869.6 2094.17 1869.16L2226.83 1837.33C2232.22 1836.03 2236.31 1831.64 2237.21 1826.17C2238.12 1820.7 2235.66 1815.23 2230.97 1812.26L1852.47 1573.05C1847.88 1570.15 1842.01 1570.21 1837.49 1573.22C1832.96 1576.22 1830.62 1581.6 1831.5 1586.96L1910.2 2062.15C1911.14 2067.86 1915.56 2072.37 1921.24 2073.45C1926.93 2074.52 1932.68 2071.93 1935.64 2066.95L2009.07 1943.69C2009.99 1942.15 2011.61 1941.16 2013.41 1941.05C2015.2 1940.94 2016.93 1941.72 2018.03 1943.13L2157.9 2122.53C2165.92 2132.82 2180.54 2135.11 2191.31 2127.78L2236.2 2097.26C2241.94 2093.35 2245.78 2087.21 2246.77 2080.34C2247.77 2073.47 2245.83 2066.5 2241.42 2061.13Z" fill="white"/>
<path d="M632.383 2429.61H605.893V2716.08H632.383V2429.61Z" fill="url(#paint6_linear_210_377)"/>
<path d="M735.144 2721.6H503.133V2712.63C503.133 2708.06 506.837 2704.36 511.406 2704.36H726.227C731.152 2704.36 735.144 2708.35 735.144 2713.28V2721.6Z" fill="url(#paint7_linear_210_377)"/>
<path d="M779.019 2419.04C779.019 2435.69 765.395 2449.32 748.744 2449.32H499.277C482.626 2449.32 469.002 2435.69 469.002 2419.04V2391.67C469.002 2375.02 482.626 2361.39 499.277 2361.39H748.744C765.396 2361.39 779.019 2375.02 779.019 2391.67V2419.04Z" fill="url(#paint8_linear_210_377)"/>
<path d="M384.318 2629.08C384.318 2629.08 298.68 2665.97 303.586 2704.57C303.586 2704.57 392.111 2687.59 407.953 2662.29C423.795 2636.99 415.066 2622.33 415.066 2622.33L384.318 2629.08Z" fill="url(#paint9_linear_210_377)"/>
<path d="M405.293 2586.92L409.641 2624.51C410.297 2630.18 407.147 2635.78 401.775 2637.71C399.085 2638.68 395.554 2639.34 390.924 2639.37C384.391 2639.4 378.605 2635.11 376.86 2628.81L368.436 2598.41L405.293 2586.92Z" fill="url(#paint10_linear_210_377)"/>
<path d="M592.374 2298.7C592.374 2298.7 434.859 2291.41 356.481 2337.12C278.103 2382.83 360.455 2602.2 360.455 2602.2C360.455 2602.2 380.93 2606.6 410.41 2590.85C410.41 2590.85 368.337 2430.26 441.418 2402.32C523.579 2370.91 608.56 2378.55 608.56 2378.55L592.816 2303.67L592.374 2298.7Z" fill="url(#paint11_linear_210_377)"/>
<path d="M320.797 2687.63C338.706 2683.71 391.819 2661.7 399.886 2662C407.952 2662.29 419.382 2674.38 419.382 2674.38C419.382 2674.38 421.35 2680.98 415.582 2690.47C401.896 2701.14 372.418 2720.73 338.144 2722.88C312.933 2724.46 297.764 2714.43 289.087 2704.7C296.682 2697.3 308.871 2690.25 320.797 2687.63Z" fill="url(#paint12_linear_210_377)"/>
<path d="M338.143 2722.88C372.417 2720.73 401.895 2701.14 415.581 2690.47C411.682 2696.88 404.255 2704.6 390.288 2712.49C355.653 2732.06 298.408 2729.21 287.06 2724.8C277.966 2721.28 280.777 2712.78 289.086 2704.7C297.763 2714.43 312.932 2724.46 338.143 2722.88Z" fill="url(#paint13_linear_210_377)"/>
<path d="M438.187 2654.7C437.014 2659.14 424.469 2672.46 417.217 2679.89C413.771 2683.42 408.766 2684.94 403.946 2683.88C400.889 2683.22 397.436 2682.17 394.45 2680.55C389.966 2678.12 388.407 2672.42 390.866 2667.95L409.209 2634.59L438.187 2654.7Z" fill="url(#paint14_linear_210_377)"/>
<path d="M748.474 2285.49C748.474 2285.49 762.223 2383.03 722.469 2402.97C682.716 2422.91 595.522 2435.96 565.49 2486.55C535.458 2537.14 481.519 2636.43 432.434 2664.96C432.434 2664.96 404.401 2655.85 396.208 2642.06C396.208 2642.06 454.471 2488.9 478.778 2451.67C499.827 2419.43 530.607 2372.98 574.337 2352.89C586.855 2347.14 587.836 2333.86 585.632 2320.26L581.619 2295.5L748.474 2285.49Z" fill="url(#paint15_linear_210_377)"/>
<path d="M380.03 2174.92C435.763 2190.83 460.709 2033.98 460.485 2030.17L545.936 2130.08C545.936 2130.08 495.021 2219.67 418.139 2229.2C398.687 2231.62 382.142 2228.25 368.263 2221.89C378.488 2205.15 380.824 2188.61 380.03 2174.92Z" fill="url(#paint16_linear_210_377)"/>
<path d="M276.819 2123.59C301.11 2113.6 321.715 2133.52 321.715 2133.52C345.785 2158.16 364.874 2170.6 380.029 2174.92C380.823 2188.61 378.487 2205.15 368.261 2221.89C338.232 2208.14 320.726 2180.32 313.516 2166.45C310.92 2161.45 304.833 2159.33 299.765 2161.79C294.615 2164.28 289.31 2168.07 288.977 2173.23C288.322 2183.41 276.216 2184.01 276.144 2180.25C276.074 2176.49 285.52 2156.4 285.52 2156.4C285.52 2156.4 257.61 2174.3 246.746 2181.15C235.882 2188 226.628 2176.69 226.628 2176.69C226.628 2176.69 252.529 2133.57 276.819 2123.59Z" fill="url(#paint17_linear_210_377)"/>
<path d="M727.004 1965.62C727.004 1965.62 652.109 1914.53 471.223 2006.94C471.223 2006.94 452.595 2030.55 461.322 2057.17C470.048 2083.79 577.447 2227.86 581.62 2295.5C581.62 2295.5 655.037 2338.72 750.341 2295.87C750.341 2295.87 782.301 2117.28 727.004 1965.62Z" fill="url(#paint18_linear_210_377)"/>
<path d="M552.717 1885.6L600.644 1958.3C603.583 1964.05 602.969 1971.02 598.936 1976.08C590.785 1986.29 573.771 2000.01 544.733 1991.17C536.095 1988.54 529.485 1981.51 527.402 1972.72L512.06 1907.99L552.717 1885.6Z" fill="url(#paint19_linear_210_377)"/>
<path d="M782.467 2168.15C787.536 2132.89 694.376 2064.56 694.376 2064.56L727.005 1965.62C727.005 1965.62 904.776 2092.49 867.391 2196.09C862.031 2210.94 854.038 2221.76 844.291 2229.43C825.464 2190.82 799.935 2174.78 782.467 2168.15Z" fill="url(#paint20_linear_210_377)"/>
<path d="M652.496 2177.93C652.496 2177.93 757.88 2207.36 779.744 2175.28C781.227 2173.11 782.097 2170.71 782.466 2168.15C799.934 2174.78 825.464 2190.82 844.289 2229.43C794.253 2268.8 697.779 2224.67 671.566 2211.44C667.254 2209.27 662.296 2208.84 657.685 2210.28C648.362 2213.19 632.206 2217.71 623.205 2217.21C610.036 2216.49 595.902 2264.08 573.49 2252.03C573.49 2252.03 583.677 2170.73 652.496 2177.93Z" fill="url(#paint21_linear_210_377)"/>
<path d="M443.329 1839.58C443.259 1840.82 465.075 1916.3 476.217 1954.76C479.619 1966.5 492.484 1972.64 503.76 1967.92L512.399 1964.3C524.206 1959.36 544.839 1944.13 545.99 1931.38L542.069 1840.2C542.069 1840.2 444.891 1811.7 443.329 1839.58Z" fill="url(#paint22_linear_210_377)"/>
<path d="M541.389 1814.93C543.637 1806.39 543.786 1793.65 527.648 1788.05C511.246 1782.36 500.194 1791.8 494.428 1799.2C492.096 1802.19 488.004 1802.97 484.634 1801.23C482.716 1800.24 480.341 1800.07 477.666 1802.08C474.061 1804.79 468.87 1803.61 466.549 1799.75C462.09 1792.32 453.66 1784.69 438.441 1788.68C411.433 1795.78 410.986 1826.44 419.778 1843.61C428.569 1860.78 457.414 1851.42 471.396 1841.15C482.027 1833.34 497.218 1839.22 503.89 1842.49C506.002 1843.53 507.511 1845.47 508.024 1847.77L515.574 1881.65C523.968 1882.47 532.216 1883.98 540.475 1885.6C540.341 1883.08 540.28 1880.93 540.323 1879.34C540.635 1868.11 553.703 1860.25 559.427 1857.34C561.303 1856.39 562.693 1854.72 563.3 1852.7C565.445 1845.58 567.836 1829.32 547.193 1824.55C542.871 1823.55 540.26 1819.22 541.389 1814.93Z" fill="url(#paint23_linear_210_377)"/>
<path d="M544.543 1899.21C544.543 1899.21 530.508 1868.63 541.413 1859.89C552.317 1851.15 569.82 1853.66 568.046 1876.85C565.838 1905.71 544.543 1899.21 544.543 1899.21Z" fill="url(#paint24_linear_210_377)"/>
<path d="M517.933 2245.03C517.745 2245.04 517.557 2245.04 517.367 2245.04L271.168 2244.77C265.082 2244.77 260.153 2239.83 260.16 2233.74C260.166 2227.65 265.123 2222.62 271.193 2222.73L517.392 2223C523.478 2223.01 528.407 2227.95 528.4 2234.03C528.393 2239.93 523.756 2244.74 517.933 2245.03Z" fill="url(#paint25_linear_210_377)"/>
<path d="M49.8455 2021.49H254.881C270.007 2021.49 283.774 2030.22 290.226 2043.9L385.014 2244.89H130.209C120.462 2244.89 111.704 2238.94 108.122 2229.87L34.6185 2043.88C30.3705 2033.14 38.2905 2021.49 49.8455 2021.49Z" fill="url(#paint26_linear_210_377)"/>
<path d="M83.0863 2773.08C81.7223 2773.08 80.3363 2772.81 79.0033 2772.26C73.7553 2770.07 71.3303 2764.18 73.5883 2759.1L290.568 2270.77C292.824 2265.69 298.907 2263.34 304.16 2265.53C309.408 2267.71 311.833 2273.6 309.575 2278.69L92.5953 2767.02C90.9113 2770.81 87.0963 2773.08 83.0863 2773.08Z" fill="url(#paint27_linear_210_377)"/>
<path d="M327.523 2773.08C323.514 2773.08 319.698 2770.81 318.014 2767.02L101.035 2278.69C98.7763 2273.6 101.202 2267.71 106.45 2265.53C111.695 2263.34 117.783 2265.69 120.042 2270.77L337.022 2759.1C339.28 2764.18 336.855 2770.07 331.606 2772.26C330.274 2772.81 328.887 2773.08 327.523 2773.08Z" fill="url(#paint28_linear_210_377)"/>
<path d="M754.731 2773.08C753.367 2773.08 751.981 2772.81 750.648 2772.26C745.399 2770.07 742.975 2764.18 745.233 2759.1L962.212 2270.77C964.47 2265.69 970.549 2263.34 975.805 2265.53C981.053 2267.71 983.478 2273.6 981.22 2278.69L764.24 2767.02C762.556 2770.81 758.741 2773.08 754.731 2773.08Z" fill="url(#paint29_linear_210_377)"/>
<path d="M999.166 2773.08C995.157 2773.08 991.341 2770.81 989.657 2767.02L772.678 2278.69C770.42 2273.6 772.844 2267.71 778.093 2265.53C783.339 2263.34 789.426 2265.69 791.686 2270.77L1008.67 2759.1C1010.92 2764.18 1008.5 2770.07 1003.25 2772.26C1001.92 2772.81 1000.53 2773.08 999.166 2773.08Z" fill="url(#paint30_linear_210_377)"/>
<path d="M1024.62 2255.69C1025.17 2252.49 1024.42 2249.18 1022.56 2246.66C1020.71 2244.15 1017.95 2242.69 1015.03 2242.69H27.9333C24.1013 2242.69 20.5332 2244.87 18.4692 2248.49C16.4042 2252.1 16.1282 2256.65 17.7352 2260.54L28.4323 2286.46C30.8812 2292.39 36.1883 2296.2 42.0283 2296.2H1008.26C1013.69 2296.2 1018.36 2291.88 1019.39 2285.91L1024.62 2255.69Z" fill="url(#paint31_linear_210_377)"/>
<path d="M2433.89 93.9501L2213.55 82.4871C2195.56 81.5511 2181.2 95.5791 2181.71 113.71L2187.41 316.341C2187.87 332.9 2202.2 345.551 2219.2 344.711L2428.43 334.376C2442.61 333.676 2454.32 321.101 2454.74 306.198L2459.84 124.69C2460.3 108.524 2448.76 94.7221 2433.89 93.9501Z" fill="url(#paint32_linear_210_377)"/>
<path d="M2317.08 295.862C2271.32 295.862 2234.09 258.632 2234.09 212.871C2234.09 167.11 2271.32 129.88 2317.08 129.88C2362.84 129.88 2400.07 167.109 2400.07 212.871C2400.07 258.632 2362.84 295.862 2317.08 295.862ZM2317.08 143.787C2278.99 143.787 2248 174.778 2248 212.87C2248 250.963 2278.99 281.954 2317.08 281.954C2355.18 281.954 2386.17 250.963 2386.17 212.87C2386.17 174.778 2355.17 143.787 2317.08 143.787Z" fill="white"/>
<path fill-rule="evenodd" clip-rule="evenodd" d="M2291.08 244.831V185.167C2291.08 178.791 2298.02 174.84 2303.51 178.094L2353.78 207.926C2359.15 211.112 2359.15 218.886 2353.78 222.073L2303.51 251.906C2298.02 255.158 2291.08 251.206 2291.08 244.831Z" fill="white"/>
<path d="M275.924 1702.04L91.5892 1692.45C76.5332 1691.67 64.5222 1703.4 64.9482 1718.57L69.7133 1888.09C70.1033 1901.95 82.0883 1912.53 96.3153 1911.83L271.354 1903.18C283.219 1902.6 293.017 1892.08 293.367 1879.61L297.636 1727.76C298.017 1714.23 288.36 1702.69 275.924 1702.04Z" fill="url(#paint33_linear_210_377)"/>
<path d="M242.724 1859.5H144.407C140.679 1859.5 137.398 1857.04 136.352 1853.46L108.484 1758.07L80.2194 1753.15C75.6534 1752.35 72.5974 1748.01 73.3924 1743.44C74.1874 1738.88 78.5384 1735.82 83.0974 1736.62L116.511 1742.43C119.662 1742.98 122.229 1745.27 123.127 1748.34L150.697 1842.72H235.748L248.355 1774.78C249.199 1770.22 253.575 1767.23 258.135 1768.06C262.691 1768.9 265.7 1773.28 264.854 1777.84L250.973 1852.64C250.237 1856.61 246.767 1859.5 242.724 1859.5Z" fill="white"/>
<path d="M252.361 1782.3H121.465C116.83 1782.3 113.074 1778.55 113.074 1773.91C113.074 1769.28 116.83 1765.52 121.465 1765.52H252.36C256.995 1765.52 260.751 1769.28 260.751 1773.91C260.751 1778.55 256.995 1782.3 252.361 1782.3Z" fill="white"/>
<path d="M166.775 1847.75C162.14 1847.75 158.384 1843.99 158.384 1839.36V1775.59C158.384 1770.95 162.14 1767.2 166.775 1767.2C171.41 1767.2 175.166 1770.95 175.166 1775.59V1839.36C175.166 1843.99 171.41 1847.75 166.775 1847.75Z" fill="white"/>
<path d="M213.763 1847.75C209.129 1847.75 205.372 1843.99 205.372 1839.36V1775.59C205.372 1770.95 209.128 1767.2 213.763 1767.2C218.398 1767.2 222.154 1770.95 222.154 1775.59V1839.36C222.154 1843.99 218.398 1847.75 213.763 1847.75Z" fill="white"/>
<path d="M245.648 1815.86H134.891C130.256 1815.86 126.5 1812.11 126.5 1807.47C126.5 1802.84 130.256 1799.08 134.891 1799.08H245.648C250.283 1799.08 254.039 1802.84 254.039 1807.47C254.039 1812.11 250.283 1815.86 245.648 1815.86Z" fill="white"/>
<path d="M171.988 1876.22C171.988 1882.64 166.785 1887.84 160.366 1887.84C153.948 1887.84 148.745 1882.64 148.745 1876.22C148.745 1869.8 153.948 1864.6 160.366 1864.6C166.785 1864.6 171.988 1869.8 171.988 1876.22Z" fill="white"/>
<path d="M242.821 1876.22C242.821 1882.64 237.618 1887.84 231.2 1887.84C224.782 1887.84 219.579 1882.64 219.579 1876.22C219.579 1869.8 224.782 1864.6 231.2 1864.6C237.618 1864.6 242.821 1869.8 242.821 1876.22Z" fill="white"/>
<path d="M2648.19 1644.64L2462.57 1634.98C2447.41 1634.19 2435.31 1646.01 2435.74 1661.28L2440.54 1831.99C2440.93 1845.94 2453 1856.6 2467.33 1855.89L2643.59 1847.19C2655.54 1846.6 2665.41 1836 2665.76 1823.45L2670.06 1670.53C2670.44 1656.92 2660.72 1645.29 2648.19 1644.64Z" fill="url(#paint34_linear_210_377)"/>
<path d="M2618.44 1809.15H2487.75C2476.59 1809.15 2467.51 1800.07 2467.51 1788.91V1695.14C2467.51 1683.98 2476.59 1674.9 2487.75 1674.9H2618.44C2629.6 1674.9 2638.68 1683.98 2638.68 1695.14V1788.91C2638.68 1800.07 2629.6 1809.15 2618.44 1809.15ZM2487.75 1691.68C2485.84 1691.68 2484.29 1693.24 2484.29 1695.14V1788.91C2484.29 1790.81 2485.84 1792.37 2487.75 1792.37H2618.44C2620.35 1792.37 2621.9 1790.81 2621.9 1788.91V1695.14C2621.9 1693.24 2620.35 1691.68 2618.44 1691.68H2487.75Z" fill="white"/>
<path d="M2551.87 1751.11C2550.17 1751.11 2548.46 1750.59 2547.01 1749.56L2474.14 1697.88C2470.36 1695.2 2469.47 1689.96 2472.15 1686.19C2474.83 1682.4 2480.07 1681.52 2483.84 1684.2L2551.86 1732.43L2618.97 1684.76C2622.75 1682.08 2627.99 1682.96 2630.67 1686.74C2633.35 1690.52 2632.47 1695.76 2628.69 1698.44L2556.72 1749.56C2555.27 1750.59 2553.57 1751.11 2551.87 1751.11Z" fill="white"/>
<path d="M2480.37 1810.12L2477.76 1793.55L2478.99 1801.84L2471.93 1797.32C2473.43 1794.89 2499.61 1749.09 2516.85 1718.9C2519.15 1714.87 2524.27 1713.47 2528.3 1715.77C2532.32 1718.07 2533.72 1723.19 2531.42 1727.21C2531.42 1727.21 2520.18 1746.91 2508.92 1766.6C2503.28 1776.46 2497.64 1786.31 2493.4 1793.7C2484.35 1809.46 2484.35 1809.46 2480.37 1810.12Z" fill="white"/>
<path d="M2622.96 1810.13C2618.96 1809.48 2618.96 1809.48 2609.9 1793.7C2605.65 1786.31 2600.02 1776.46 2594.38 1766.61C2583.12 1746.91 2571.87 1727.21 2571.87 1727.21C2569.58 1723.19 2570.98 1718.07 2575 1715.77C2579.02 1713.47 2584.15 1714.87 2586.45 1718.9C2603.69 1749.09 2629.88 1794.9 2631.37 1797.33L2624.31 1801.85L2622.96 1810.13Z" fill="white"/>
<path d="M2684.4 343.881L2498.77 334.224C2483.61 333.435 2471.52 345.253 2471.95 360.527L2476.74 531.235C2477.14 545.185 2489.21 555.843 2503.53 555.135L2679.79 546.428C2691.74 545.838 2701.61 535.244 2701.96 522.689L2706.26 369.777C2706.64 356.16 2696.92 344.533 2684.4 343.881Z" fill="url(#paint35_linear_210_377)"/>
<path d="M2602.38 375.869C2599.3 374.774 2596.07 377.087 2596.07 380.358V387.06V400.201V465.531C2589.61 460.219 2580.6 456.908 2570.6 456.908C2550.98 456.908 2535.07 469.635 2535.07 485.335C2535.07 501.035 2550.98 513.762 2570.6 513.762C2590.23 513.762 2606.14 501.035 2606.14 485.335C2606.14 485.199 2606.11 485.067 2606.11 484.931H2606.14V400.259C2620.21 402.392 2629.78 413.081 2635.38 421.812C2637.73 425.477 2643.36 423.624 2643.13 419.275C2641.73 392.886 2614.89 380.313 2602.38 375.869Z" fill="white"/>
<path d="M448.159 916.111C436.053 934.716 411.063 940.004 392.458 927.898C373.853 915.792 368.565 890.801 380.671 872.197C392.777 853.592 417.767 848.305 436.372 860.411C454.976 872.517 460.265 897.507 448.159 916.111ZM394.065 880.913C386.763 892.135 389.951 907.205 401.173 914.507C412.395 921.809 427.464 918.619 434.766 907.397C442.068 896.176 438.879 881.106 427.658 873.804C416.435 866.502 401.366 869.691 394.065 880.913Z" fill="white"/>
<path d="M342.428 847.313C368.257 807.618 421.562 796.339 461.256 822.168C463.716 823.769 466.056 825.483 468.287 827.292C471.289 829.726 475.751 828.773 477.357 825.258L482.611 813.764C483.757 811.254 482.977 808.308 480.781 806.635C478.701 805.051 476.553 803.528 474.328 802.08C423.559 769.045 355.374 783.473 322.339 834.242C319.836 838.089 317.621 842.039 315.669 846.065C314.207 849.08 315.524 852.708 318.597 854.037L329.908 858.931C332.768 860.169 336.084 858.941 337.45 856.14C338.914 853.135 340.56 850.185 342.428 847.313Z" fill="white"/>
<path d="M290.531 813.544C334.981 745.233 426.714 725.822 495.025 770.272L495.083 770.309C498.071 772.255 502.08 771.153 503.563 767.911L508.716 756.635C507.904 753.823 507.38 752.012 506.568 749.199C427.348 698.819 321.768 721.596 270.443 800.473C265.963 807.358 262.074 814.457 258.713 821.701C257.345 824.647 258.751 828.144 261.732 829.434L273.015 834.314C275.887 835.556 279.262 834.334 280.584 831.497C283.442 825.372 286.74 819.37 290.531 813.544Z" fill="white"/>
<path d="M238.634 779.775C300.062 685.372 425.128 656.829 521.15 713.682C524.165 715.468 528.051 714.322 529.508 711.135L534.62 699.947C535.862 697.231 534.873 693.974 532.295 692.465C425.439 629.937 286.77 661.852 218.544 766.703C212.135 776.552 206.617 786.723 201.885 797.107C200.536 800.068 201.939 803.564 204.924 804.857L216.192 809.731C219.13 811.003 222.496 809.654 223.828 806.743C228.044 797.533 232.948 788.513 238.634 779.775Z" fill="white"/>
<path d="M2491.3 1383.38L2303.89 1373.63C2288.58 1372.83 2276.37 1384.76 2276.81 1400.19L2281.65 1572.54C2282.05 1586.62 2294.23 1597.38 2308.7 1596.67L2486.65 1587.88C2498.72 1587.28 2508.68 1576.59 2509.04 1563.91L2513.38 1409.53C2513.76 1395.78 2503.94 1384.04 2491.3 1383.38Z" fill="url(#paint36_linear_210_377)"/>
<path d="M2466.74 1403.04H2334.25C2321.98 1403.04 2306.41 1411.96 2306.41 1424.62V1498.31C2306.41 1510.46 2322.11 1520.51 2334.25 1520.51H2425.39C2428.53 1520.51 2430.59 1526.34 2430.59 1529.48V1540.37C2430.59 1544.85 2434.88 1546.51 2437.09 1547.25C2438.14 1547.99 2439.85 1549.1 2442.07 1549.1C2443.9 1549.1 2445.67 1548.32 2446.84 1546.93L2466.67 1523.79C2479.05 1523.52 2484.29 1510.46 2484.29 1498.31V1424.62C2484.29 1412.57 2478.8 1403.04 2466.74 1403.04ZM2470.87 1498.31C2470.87 1504.01 2471.34 1510.44 2466.74 1510.44H2461.79L2437.3 1533.72V1517.72C2437.3 1514.58 2440.29 1510.44 2437.15 1510.44H2334.25C2328.61 1510.44 2316.48 1503.96 2316.48 1498.31V1427.66C2316.48 1419.43 2328.56 1419.82 2334.25 1419.82H2466.74C2472.35 1419.82 2470.87 1419.02 2470.87 1424.62V1498.31Z" fill="white"/>
<path d="M2457.44 1439.96C2457.44 1441.81 2455.94 1443.32 2454.09 1443.32H2333.26C2331.41 1443.32 2329.9 1441.81 2329.9 1439.96C2329.9 1438.11 2331.41 1436.6 2333.26 1436.6H2454.09C2455.94 1436.6 2457.44 1438.11 2457.44 1439.96Z" fill="white"/>
<path d="M2457.44 1460.1C2457.44 1461.95 2455.94 1463.45 2454.09 1463.45H2333.26C2331.41 1463.45 2329.9 1461.95 2329.9 1460.1C2329.9 1458.24 2331.41 1456.74 2333.26 1456.74H2454.09C2455.94 1456.74 2457.44 1458.24 2457.44 1460.1Z" fill="white"/>
<path d="M2457.44 1490.3C2457.44 1492.16 2455.94 1493.66 2454.09 1493.66H2333.26C2331.41 1493.66 2329.9 1492.16 2329.9 1490.3C2329.9 1488.45 2331.41 1486.95 2333.26 1486.95H2454.09C2455.94 1486.95 2457.44 1488.45 2457.44 1490.3Z" fill="white"/>
<path d="M1682.16 1301.15C1682.59 1300.99 1911.92 899.363 1942.91 861.567C1948.13 855.21 1956.2 851.972 1964.36 852.945L2028.37 860.573L2103.57 1023.26L1978.29 950.297C1990.69 1036.03 1829.75 1163.45 1774.55 1209.94C1768.95 1214.66 1768.49 1223.11 1773.55 1228.4L1795.58 1251.47C1759.41 1288.14 1717.66 1311.69 1670.54 1322.58L1682.16 1301.15Z" fill="url(#paint37_linear_210_377)"/>
<path d="M1782.84 1239.02C1782.84 1239.02 1796.9 1243.57 1801.66 1256.09C1803.94 1262.08 1801.48 1268.87 1796.27 1272.61C1773.12 1289.2 1696.73 1342.76 1661.48 1353.25C1658.59 1354.11 1655.84 1351.5 1656.49 1348.56C1658.3 1340.37 1664.15 1324.01 1683 1300.07L1681.31 1303.49C1679.17 1307.82 1683.88 1312.33 1688.09 1309.96C1711.67 1296.65 1759.69 1267.52 1782.84 1239.02Z" fill="url(#paint38_linear_210_377)"/>
<path d="M1771.49 1399.72C1771.87 1399.47 1806.28 1316.57 1806.67 1316.33C1838.21 1124.25 1915.18 959.749 1937.88 916.463C1941.7 909.183 1948.95 904.38 1957.14 903.679L2021.37 898.196L2127.94 1042.3L1990.49 996.198C2019.98 1077.65 1888.15 1235 1843.51 1291.7C1838.98 1297.45 1840.24 1305.82 1846.26 1309.99L1872.51 1328.12C1844.5 1371.35 1808.39 1402.86 1764.45 1423.06L1771.49 1399.72Z" fill="url(#paint39_linear_210_377)"/>
<path d="M1857.51 1318.5C1857.51 1318.5 1872.2 1320.11 1879.4 1331.41C1882.84 1336.82 1881.81 1343.96 1877.46 1348.67C1858.14 1369.61 1794.17 1437.52 1761.78 1454.93C1759.12 1456.36 1755.9 1454.35 1755.94 1451.34C1756.05 1442.95 1758.48 1425.75 1772.09 1398.5L1771.13 1402.19C1769.91 1406.86 1775.44 1410.32 1779.08 1407.15C1799.47 1389.34 1840.61 1351.09 1857.51 1318.5Z" fill="url(#paint40_linear_210_377)"/>
<path d="M2322.03 867.848C2322.03 867.848 2380.13 954.272 2384.9 993.695C2389.67 1033.12 2368.84 1046.75 2308.02 1051.78C2127.04 1066.74 2037.82 1012.5 2037.82 1012.5C2051.38 974.874 2067.76 895.865 1964.36 852.945C1964.36 852.945 2049.73 866.62 2076.05 856.407C2102.37 846.193 2322.03 867.848 2322.03 867.848Z" fill="url(#paint41_linear_210_377)"/>
<path d="M1993.98 407.253C1994.98 414.833 2126.88 781.921 2126.88 781.921L2328.76 813.561C2367.69 819.663 2405.93 799.165 2422.41 763.369C2463.34 674.426 2424.38 569.144 2335.41 528.277L2305.61 514.59C2261.15 494.17 2217.58 458.919 2179.28 421.889C2147.15 390.82 2104.59 372.837 2059.95 370.606L1993.98 407.253Z" fill="url(#paint42_linear_210_377)"/>
<path d="M2387.38 730.668C2387.06 730.668 2386.73 730.524 2386.51 730.245C2386.12 729.76 2386.2 729.055 2386.69 728.668C2407.73 711.942 2405.82 680.421 2404.02 667.645C2400.44 642.243 2390.38 617.999 2374.93 597.527C2347.12 560.7 2304.45 538.749 2263.18 517.52L2254.64 513.118C2212.38 491.263 2165.3 464.167 2141.64 419.027C2141.35 418.476 2141.56 417.801 2142.11 417.513C2142.66 417.215 2143.34 417.434 2143.63 417.985C2166.99 462.548 2213.71 489.427 2255.67 511.125L2264.21 515.523C2305.7 536.867 2348.6 558.938 2376.72 596.176C2392.4 616.949 2402.61 641.555 2406.24 667.33C2408.09 680.49 2410.03 712.978 2388.08 730.424C2387.88 730.59 2387.63 730.668 2387.38 730.668Z" fill="white"/>
<path d="M2366.14 691.022C2366.12 691.022 2366.09 691.022 2366.07 691.022C2365.45 690.983 2364.98 690.448 2365.02 689.829C2366.71 663.208 2362.91 640.143 2353.72 621.274C2337.08 587.124 2301.91 565.266 2273.13 550.038C2267.33 546.967 2261.46 543.971 2255.58 540.969C2228.89 527.337 2201.28 513.237 2179.76 491.88C2179.32 491.444 2179.32 490.733 2179.75 490.294C2180.19 489.851 2180.9 489.851 2181.34 490.287C2202.61 511.398 2230.06 525.417 2256.61 538.973C2262.49 541.979 2268.37 544.981 2274.18 548.052C2303.26 563.44 2338.82 585.558 2355.74 620.291C2365.1 639.514 2368.98 662.959 2367.26 689.973C2367.22 690.567 2366.73 691.022 2366.14 691.022Z" fill="white"/>
<path d="M1937.58 689.962C1937.58 689.962 2006.57 772.593 2076.05 705.488L2102.89 767.739C2102.89 767.739 2001.44 846.301 1924.48 722.693L1937.58 689.962Z" fill="url(#paint43_linear_210_377)"/>
<path d="M2164.89 856.407C2164.89 856.407 2097.23 791.977 2063.92 749.303C2045.91 726.235 2040.26 695.866 2048.59 667.814C2063.79 616.583 2090.82 563.521 2093.28 555.263C2097.06 542.605 2172.93 543.132 2172.93 543.132C2172.93 543.132 2244.36 554.237 2244.93 675.264C2245.06 704.071 2253.07 732.348 2268.09 756.929C2285.33 785.147 2302.11 827.506 2322.03 867.849L2164.89 856.407Z" fill="url(#paint44_linear_210_377)"/>
<path d="M2120.79 451.912L2171.78 546.733C2168.41 567.431 2116.28 568.015 2108.22 555.655C2107.4 554.397 2106.94 552.943 2106.63 551.473L2076.12 488.117C2074.81 481.938 2091.75 461.122 2097.32 458.155L2117.59 447.367C2125.4 443.212 2092.83 442.885 2120.79 451.912Z" fill="url(#paint45_linear_210_377)"/>
<path d="M2017.59 429.658C2017.59 429.658 2011.83 461.693 2037.01 502.424C2062.19 543.156 2087.26 541.317 2100 526.791C2112.74 512.265 2128 488.072 2121.06 447.447C2114.11 406.822 2026.28 388.805 2017.59 429.658Z" fill="url(#paint46_linear_210_377)"/>
<path d="M2090.57 451.862C2090.57 451.862 2049.8 398.31 2018.5 444.994L2019.03 461.121C2019.03 461.121 1978.32 459.217 1982.74 421.701C1987.15 384.183 2020.38 358.553 2066.46 371.371C2112.53 384.19 2139.45 398.788 2144.65 430.774C2149.85 462.76 2123.73 457.534 2123.73 457.534C2123.73 457.534 2113.76 435.464 2101.71 433.956C2089.66 432.449 2094.02 449.907 2094.02 449.907L2090.57 451.862Z" fill="url(#paint47_linear_210_377)"/>
<path d="M2099.93 450.433C2099.93 450.433 2078.81 423.028 2098.04 417.339C2117.26 411.651 2116.54 444.193 2115.29 456.299L2099.93 450.433Z" fill="url(#paint48_linear_210_377)"/>
<path d="M2257.28 783.296C2257.28 783.296 2111.77 763.033 2063.87 718.209C2063.87 718.209 2040.69 696.31 2023.95 693.647C2014.93 692.213 2004.76 691.255 1997.3 690.677C1993.89 690.413 1992.3 694.812 1995.09 696.777C2000.49 700.565 2007.55 704.643 2013.68 705.279C2025.52 706.507 2012.9 715.185 2025.79 737.859C2038.69 760.533 2057.11 751.982 2057.11 751.982C2057.11 751.982 2153.51 835.041 2245.62 834.345C2245.62 834.343 2268.34 826.892 2257.28 783.296Z" fill="url(#paint49_linear_210_377)"/>
<path d="M1892.22 633.092L1942.5 626.466C1948.5 625.472 1954.69 628.985 1958.39 635.485L1991.47 708.603C1997.7 719.528 1993.27 734.021 1983.19 735.692L1942.81 740.871C1938.95 741.512 1934.98 739.073 1932.8 734.721L1888.06 645.425C1885.47 640.266 1887.63 633.852 1892.22 633.092Z" fill="url(#paint50_linear_210_377)"/>
<path d="M2224.63 584.778C2224.63 584.778 2361.67 787.758 2245.62 834.343L2224.63 777.722C2224.63 777.722 2238.5 746.368 2197.63 667.674C2192.24 657.301 2189.66 645.675 2190.13 633.996C2191.51 599.964 2197.64 536.776 2224.63 584.778Z" fill="url(#paint51_linear_210_377)"/>
<path opacity="0.43" d="M2224.64 780.173C2225.58 780.173 2226.47 779.631 2226.87 778.715C2227.46 777.391 2240.75 745.377 2199.81 666.541C2199.18 665.334 2197.7 664.867 2196.5 665.493C2195.29 666.119 2194.83 667.602 2195.45 668.806C2235.08 745.105 2222.51 776.435 2222.38 776.742C2221.85 777.985 2222.41 779.428 2223.65 779.968C2223.97 780.105 2224.31 780.173 2224.64 780.173Z" fill="white"/>
<path d="M1926.52 731.717C1926.52 731.717 1892.71 682.512 1896.64 676.454C1900.57 670.396 1930.21 661.717 1937.17 659.67C1944.13 657.623 1957.22 702.243 1926.52 731.717Z" fill="url(#paint52_linear_210_377)"/>
<path d="M2449.99 2450.43C2463.56 2453.13 2540.9 2499.15 2540.9 2446.53C2540.9 2441.58 2540.9 2387.76 2540.9 2387.76C2540.9 2387.76 2446.09 2449.65 2449.99 2450.43Z" fill="url(#paint53_linear_210_377)"/>
<path d="M2498.39 2351.65C2498.39 2351.65 2464.4 2294.29 2460.15 2238C2455.9 2181.7 2462.81 2157.07 2456.43 2140.71C2450.06 2124.35 2419.08 2062.22 2417.66 2080.89C2416.25 2099.56 2427.58 2119.04 2427.58 2119.04C2427.58 2119.04 2407.93 2134.67 2411.29 2152.67C2414.66 2170.67 2421.56 2172.5 2421.56 2172.5C2421.56 2172.5 2422.62 2211.45 2424.39 2211.45C2426.16 2211.45 2393.23 2406.88 2430.06 2411.13C2466.88 2415.38 2496.62 2441.58 2498.39 2351.65Z" fill="url(#paint54_linear_210_377)"/>
<path d="M2401.26 2138.83C2400.91 2136.24 2377.11 2084.46 2381.37 2078.57C2385.64 2072.68 2389.94 2067.43 2396.62 2084.89C2403.3 2102.35 2411.28 2149.84 2408.71 2150.12C2406.14 2150.41 2402.49 2148.11 2401.26 2138.83Z" fill="url(#paint55_linear_210_377)"/>
<path d="M2178.51 2702.96C2178.51 2702.96 2160.54 2688.04 2136.65 2690.22C2119.99 2693.14 2100.45 2707.87 2087.85 2718.8C2085.65 2720.71 2084.91 2723.74 2085.99 2726.4C2087.08 2729.06 2089.75 2730.79 2092.69 2730.73C2123.93 2730.08 2185.05 2728.22 2185.05 2723.62C2185.05 2717.43 2178.51 2702.96 2178.51 2702.96Z" fill="url(#paint56_linear_210_377)"/>
<path d="M2190.89 2676.67L2176.56 2703.75C2176.56 2703.75 2144.16 2706.41 2145.22 2693.66C2146.28 2680.92 2154.25 2665.52 2154.25 2665.52L2190.89 2676.67Z" fill="url(#paint57_linear_210_377)"/>
<path d="M2557.04 2695.11C2534.57 2572.46 2518.21 2493.69 2518.21 2493.69C2518.21 2493.69 2269.23 2333.06 2243.74 2372.36C2218.24 2411.66 2145.19 2679.86 2145.19 2679.86L2193.9 2693.13C2193.9 2693.13 2287.02 2567.01 2295.52 2459.33C2319.49 2537.86 2341.83 2725.54 2526.27 2730.92C2535.43 2731.19 2544.21 2727.3 2550.18 2720.35C2556.15 2713.4 2558.69 2704.12 2557.04 2695.11Z" fill="url(#paint58_linear_210_377)"/>
<path d="M2018.82 2692.07L1989.08 2720.22L1965.72 2696.85L1996.52 2661.27L2018.82 2692.07Z" fill="url(#paint59_linear_210_377)"/>
<path d="M2622.54 2121.7L2680.75 2196.55C2683.42 2199.98 2683.87 2204.71 2681.81 2208.25C2674.27 2221.21 2652.38 2249.87 2606.09 2250.27C2600.8 2250.32 2595.74 2246.94 2593.13 2241.8L2556.95 2170.52L2622.54 2121.7Z" fill="url(#paint60_linear_210_377)"/>
<path d="M2483.89 2024.19C2483.89 2024.19 2469.05 2109.63 2492.29 2144.91C2515.53 2180.19 2582.78 2181.08 2623.37 2126.19L2616.33 2007.58L2483.89 2024.19Z" fill="url(#paint61_linear_210_377)"/>
<path d="M2589.3 2080.98C2586.67 2080.98 2584.67 2078.64 2585.1 2076.04C2586.41 2068.13 2588.41 2052.3 2585.98 2040.28C2585.98 2040.28 2592.44 2030.53 2557.13 2036.98C2521.81 2043.43 2468.93 2052.58 2446.92 2029.8C2425.46 2007.6 2421.7 1929.61 2486.06 1964.68C2488.51 1966.01 2491.58 1964.71 2492.24 1962C2495.1 1950.31 2504.74 1924.4 2534.08 1924.59C2561.53 1924.76 2571.52 1940.41 2574.94 1949.02C2575.94 1951.55 2579.02 1952.5 2581.26 1950.95C2591.88 1943.63 2618.84 1929.47 2644.4 1952.26C2665.45 1971.04 2664.37 1987.41 2660.92 1996.7C2659.8 1999.71 2662.23 2002.79 2665.42 2002.41C2674.06 2001.38 2686.74 2003.5 2693.63 2021.77C2703.15 2047.03 2674.61 2057.03 2666.27 2059.37C2664.9 2059.75 2663.8 2060.76 2663.35 2062.11C2659.91 2072.53 2645.16 2119.1 2614.02 2137.4C2611.32 2138.98 2606.25 2135.58 2605.99 2132.47L2601.98 2084.91C2601.79 2082.7 2599.94 2081 2597.73 2081L2589.3 2080.98Z" fill="url(#paint62_linear_210_377)"/>
<path d="M2584.37 2086.22C2584.37 2086.22 2609.25 2045.99 2620.96 2065.46C2632.66 2084.93 2602 2109.5 2581.39 2109.41L2584.37 2086.22Z" fill="url(#paint63_linear_210_377)"/>
<path d="M2527.94 2327.22C2527.94 2327.22 2414.48 2375.02 2393.23 2350.59C2371.99 2326.16 2383.68 2189.17 2383.68 2189.17L2335.88 2176.4C2335.88 2176.4 2277.11 2418.21 2376.95 2454.33C2449.43 2480.54 2587.61 2395.2 2587.61 2395.2L2527.94 2327.22Z" fill="url(#paint64_linear_210_377)"/>
<path d="M2634.63 2161.88C2616.34 2165.9 2596.29 2183.37 2580.6 2200.13C2562.69 2219.27 2550.69 2243.27 2546.22 2269.1C2546.08 2269.94 2545.93 2270.78 2545.79 2271.63C2506.3 2314.91 2471.52 2342.92 2448.12 2353.28C2489.19 2411.61 2511.42 2433.77 2511.42 2433.77C2511.42 2433.77 2516.15 2432.75 2524.09 2430.7C2516.38 2500.31 2512.2 2554.2 2512.2 2554.2C2512.2 2554.2 2592.42 2633.83 2689.58 2656.49C2778.06 2591.34 2791.59 2404.98 2791.59 2404.98C2798.52 2183.94 2696.43 2148.29 2634.63 2161.88Z" fill="url(#paint65_linear_210_377)"/>
<path d="M2689.58 2656.49C2689.58 2656.49 2649.75 2774.92 2453.15 2708.53C2357.83 2676.35 2224.35 2489.73 2224.35 2489.73C2224.35 2489.73 2191.42 2580.01 2019.36 2701.1L1981.12 2666.76C1981.12 2666.76 2155.31 2366.52 2244.53 2397.68C2333.75 2428.83 2716.84 2579.66 2689.58 2656.49Z" fill="url(#paint66_linear_210_377)"/>
<path d="M2003.59 2706.49C1996.31 2706.57 1965.72 2693.13 1965.72 2693.13L1937.22 2700.74C1912.37 2696.92 1891.04 2705.38 1876.66 2713.98C1873.52 2715.86 1872.01 2719.6 1872.96 2723.13C1873.91 2726.67 1877.08 2729.14 1880.74 2729.21C1908.87 2729.67 1955.07 2730.14 1978.46 2728.74C2013.51 2726.64 2018.82 2727.65 2003.59 2706.49Z" fill="url(#paint67_linear_210_377)"/>
<path d="M2563.32 2420.3C2562.75 2420.3 2562.24 2419.92 2562.1 2419.35C2561.93 2418.67 2562.34 2417.99 2563.02 2417.83C2563.32 2417.75 2593.46 2410.21 2625.86 2391.69C2655.66 2374.65 2693.54 2344.56 2704.72 2297.97C2704.88 2297.3 2705.57 2296.88 2706.24 2297.04C2706.91 2297.21 2707.33 2297.89 2707.17 2298.56C2695.76 2346.04 2657.31 2376.61 2627.05 2393.9C2594.36 2412.58 2563.92 2420.19 2563.62 2420.26C2563.52 2420.29 2563.42 2420.3 2563.32 2420.3Z" fill="url(#paint68_linear_210_377)"/>
<path d="M2310.62 2065.7C2309.8 2063.6 2309.96 2061.24 2311.05 2059.26C2312.14 2057.29 2314.06 2055.9 2316.28 2055.47L2371.65 2044.91C2373.8 2044.5 2375.91 2045.77 2376.56 2047.86L2419.15 2185.16C2419.34 2185.75 2419.28 2186.4 2418.98 2186.94C2418.69 2187.49 2418.2 2187.9 2417.6 2188.08L2371.31 2201.97C2367.52 2203.11 2363.49 2201.14 2362.05 2197.46L2310.62 2065.7Z" fill="url(#paint69_linear_210_377)"/>
<path d="M2328.09 2067.06C2327.64 2065.86 2327.75 2064.52 2328.39 2063.41C2329.04 2062.3 2330.14 2061.53 2331.4 2061.32L2368.16 2055.11C2370.28 2054.75 2372.35 2056.02 2372.98 2058.08L2409.15 2175.05C2409.34 2175.67 2409.27 2176.33 2408.95 2176.89C2408.64 2177.45 2408.1 2177.85 2407.48 2178L2374.54 2185.92C2373.4 2186.19 2372.23 2185.57 2371.82 2184.47L2328.09 2067.06Z" fill="url(#paint70_linear_210_377)"/>
<path d="M2345.82 2055.73C2345.91 2056.16 2346.65 2056.37 2347.46 2056.2L2359.55 2053.65C2360.37 2053.48 2360.96 2052.99 2360.87 2052.56L2360.78 2052.14C2360.69 2051.71 2359.95 2051.5 2359.13 2051.68L2347.05 2054.22C2346.23 2054.4 2345.64 2054.89 2345.73 2055.32L2345.82 2055.73Z" fill="url(#paint71_linear_210_377)"/>
<path d="M2335.26 2179.03C2334.55 2172.94 2314.1 2134.17 2322.07 2119.3C2330.04 2104.43 2333.22 2078.94 2340.92 2086.11C2348.62 2093.28 2339.06 2118.24 2342.52 2125.68C2345.97 2133.11 2359.23 2152 2360.96 2166.72C2362.7 2181.44 2372.52 2202.42 2351.81 2205.34C2331.1 2208.26 2335.26 2179.03 2335.26 2179.03Z" fill="url(#paint72_linear_210_377)"/>
<path d="M2554.15 2266.87C2553.9 2266.87 2553.66 2266.8 2553.44 2266.65C2552.87 2266.26 2552.72 2265.48 2553.12 2264.91C2555.46 2261.49 2610.88 2181.38 2642.8 2194.89C2643.44 2195.16 2643.74 2195.9 2643.47 2196.54C2643.2 2197.17 2642.46 2197.47 2641.82 2197.2C2611.78 2184.46 2555.75 2265.51 2555.19 2266.33C2554.94 2266.68 2554.55 2266.87 2554.15 2266.87Z" fill="url(#paint73_linear_210_377)"/>
<path d="M2429.61 2191.99C2429.22 2191.99 2428.84 2191.81 2428.59 2191.47C2418.9 2178.03 2425.02 2162.69 2427.63 2156.15C2427.96 2155.33 2428.32 2154.43 2428.44 2154C2427.25 2151.35 2422.62 2137.75 2424.04 2129.28C2424.36 2127.32 2425.38 2126.72 2426.17 2126.57C2430.53 2125.72 2440.01 2140.11 2443.87 2146.35C2444.24 2146.94 2444.05 2147.71 2443.46 2148.08C2442.87 2148.44 2442.1 2148.26 2441.73 2147.67C2435.44 2137.5 2428.6 2129.03 2426.7 2129.03C2426.69 2129.03 2426.69 2129.03 2426.68 2129.03C2426.69 2129.06 2426.59 2129.24 2426.52 2129.69C2425.16 2137.8 2430.09 2151.86 2430.79 2153.11C2431.24 2153.89 2430.92 2154.7 2429.97 2157.08C2427.51 2163.24 2421.74 2177.68 2430.63 2190C2431.04 2190.56 2430.91 2191.35 2430.35 2191.75C2430.13 2191.91 2429.87 2191.99 2429.61 2191.99Z" fill="url(#paint74_linear_210_377)"/>
<path d="M2454.65 2024.8C2453.88 2024.8 2453.14 2024.4 2452.72 2023.69C2442.88 2006.84 2439.77 1992.51 2443.5 1981.11C2447.16 1969.9 2456.12 1965.88 2456.49 1965.72C2457.63 1965.22 2458.94 1965.75 2459.43 1966.87C2459.92 1968 2459.41 1969.31 2458.28 1969.8C2457.97 1969.94 2450.7 1973.27 2447.7 1982.59C2444.44 1992.72 2447.43 2005.79 2456.57 2021.44C2457.19 2022.51 2456.83 2023.87 2455.77 2024.49C2455.42 2024.7 2455.03 2024.8 2454.65 2024.8Z" fill="white"/>
<defs>
<linearGradient id="paint0_linear_210_377" x1="3039.21" y1="3218.81" x2="1075.77" y2="1128.7" gradientUnits="userSpaceOnUse">
<stop stop-color="#B37CFF"/>
<stop offset="1" stop-color="#F895E7"/>
</linearGradient>
<linearGradient id="paint1_linear_210_377" x1="944.324" y1="972.856" x2="554.009" y2="81.5401" gradientUnits="userSpaceOnUse">
<stop stop-color="#53D8FF"/>
<stop offset="1" stop-color="#3840F7"/>
</linearGradient>
<linearGradient id="paint2_linear_210_377" x1="252.934" y1="1797.83" x2="2778.25" y2="1797.83" gradientUnits="userSpaceOnUse">
<stop stop-color="#2B3582"/>
<stop offset="1" stop-color="#150E42"/>
</linearGradient>
<linearGradient id="paint3_linear_210_377" x1="1565.98" y1="1157.65" x2="1391.45" y2="2842.5" gradientUnits="userSpaceOnUse">
<stop stop-color="#A737D5"/>
<stop offset="1" stop-color="#EF497A"/>
</linearGradient>
<linearGradient id="paint4_linear_210_377" x1="1394.9" y1="1593.72" x2="1223.73" y2="2303.54" gradientUnits="userSpaceOnUse">
<stop stop-color="#53D8FF"/>
<stop offset="1" stop-color="#3840F7"/>
</linearGradient>
<linearGradient id="paint5_linear_210_377" x1="2844.31" y1="200.044" x2="-757.648" y2="3854.58" gradientUnits="userSpaceOnUse">
<stop stop-color="#53D8FF"/>
<stop offset="1" stop-color="#3840F7"/>
</linearGradient>
<linearGradient id="paint6_linear_210_377" x1="598.46" y1="2702.92" x2="655.714" y2="2342.78" gradientUnits="userSpaceOnUse">
<stop stop-color="#CB236D"/>
<stop offset="1" stop-color="#4C246D"/>
</linearGradient>
<linearGradient id="paint7_linear_210_377" x1="620.903" y1="2705.69" x2="679.508" y2="2337.05" gradientUnits="userSpaceOnUse">
<stop stop-color="#CB236D"/>
<stop offset="1" stop-color="#4C246D"/>
</linearGradient>
<linearGradient id="paint8_linear_210_377" x1="574.55" y1="2716.48" x2="635.397" y2="2333.73" gradientUnits="userSpaceOnUse">
<stop stop-color="#FDF53F"/>
<stop offset="1" stop-color="#D93C65"/>
</linearGradient>
<linearGradient id="paint9_linear_210_377" x1="333.244" y1="2561.5" x2="359.027" y2="2661.39" gradientUnits="userSpaceOnUse">
<stop stop-color="#2B3582"/>
<stop offset="1" stop-color="#150E42"/>
</linearGradient>
<linearGradient id="paint10_linear_210_377" x1="412.156" y1="2616.44" x2="366.673" y2="2606.38" gradientUnits="userSpaceOnUse">
<stop stop-color="#F9B776"/>
<stop offset="1" stop-color="#F47960"/>
</linearGradient>
<linearGradient id="paint11_linear_210_377" x1="322.497" y1="2691.26" x2="513.797" y2="2278.45" gradientUnits="userSpaceOnUse">
<stop stop-color="#CB236D"/>
<stop offset="1" stop-color="#4C246D"/>
</linearGradient>
<linearGradient id="paint12_linear_210_377" x1="339.644" y1="2658.14" x2="452.117" y2="2900.16" gradientUnits="userSpaceOnUse">
<stop stop-color="#2B3582"/>
<stop offset="1" stop-color="#150E42"/>
</linearGradient>
<linearGradient id="paint13_linear_210_377" x1="408.935" y1="2720.5" x2="286.632" y2="2693.43" gradientUnits="userSpaceOnUse">
<stop stop-color="#53D8FF"/>
<stop offset="1" stop-color="#3840F7"/>
</linearGradient>
<linearGradient id="paint14_linear_210_377" x1="435.755" y1="2665.7" x2="393.067" y2="2656.25" gradientUnits="userSpaceOnUse">
<stop stop-color="#F9B776"/>
<stop offset="1" stop-color="#F47960"/>
</linearGradient>
<linearGradient id="paint15_linear_210_377" x1="453.495" y1="2751.96" x2="644.794" y2="2339.16" gradientUnits="userSpaceOnUse">
<stop stop-color="#CB236D"/>
<stop offset="1" stop-color="#4C246D"/>
</linearGradient>
<linearGradient id="paint16_linear_210_377" x1="417.655" y1="1732.82" x2="503.236" y2="2694.35" gradientUnits="userSpaceOnUse">
<stop stop-color="#FDF53F"/>
<stop offset="1" stop-color="#D93C65"/>
</linearGradient>
<linearGradient id="paint17_linear_210_377" x1="381.569" y1="2182.39" x2="232.663" y2="2149.43" gradientUnits="userSpaceOnUse">
<stop stop-color="#F9B776"/>
<stop offset="1" stop-color="#F47960"/>
</linearGradient>
<linearGradient id="paint18_linear_210_377" x1="621.104" y1="2018.26" x2="550.625" y2="2677.74" gradientUnits="userSpaceOnUse">
<stop stop-color="#FDF53F"/>
<stop offset="1" stop-color="#D93C65"/>
</linearGradient>
<linearGradient id="paint19_linear_210_377" x1="606.131" y1="1951.2" x2="507.335" y2="1929.34" gradientUnits="userSpaceOnUse">
<stop stop-color="#F9B776"/>
<stop offset="1" stop-color="#F47960"/>
</linearGradient>
<linearGradient id="paint20_linear_210_377" x1="792.148" y1="2036.54" x2="721.669" y2="2696.02" gradientUnits="userSpaceOnUse">
<stop stop-color="#FDF53F"/>
<stop offset="1" stop-color="#D93C65"/>
</linearGradient>
<linearGradient id="paint21_linear_210_377" x1="885.496" y1="1824.79" x2="563.308" y2="2574.88" gradientUnits="userSpaceOnUse">
<stop stop-color="#F9B776"/>
<stop offset="1" stop-color="#F47960"/>
</linearGradient>
<linearGradient id="paint22_linear_210_377" x1="472.641" y1="1844" x2="605.357" y2="2041.64" gradientUnits="userSpaceOnUse">
<stop stop-color="#F9B776"/>
<stop offset="1" stop-color="#F47960"/>
</linearGradient>
<linearGradient id="paint23_linear_210_377" x1="565.046" y1="1837.94" x2="414.177" y2="1829.5" gradientUnits="userSpaceOnUse">
<stop stop-color="#2B3582"/>
<stop offset="1" stop-color="#150E42"/>
</linearGradient>
<linearGradient id="paint24_linear_210_377" x1="645.644" y1="1984.38" x2="550.16" y2="1874.77" gradientUnits="userSpaceOnUse">
<stop stop-color="#F9B776"/>
<stop offset="1" stop-color="#F47960"/>
</linearGradient>
<linearGradient id="paint25_linear_210_377" x1="189.17" y1="1688.48" x2="410.676" y2="2277.48" gradientUnits="userSpaceOnUse">
<stop stop-color="#53D8FF"/>
<stop offset="1" stop-color="#3840F7"/>
</linearGradient>
<linearGradient id="paint26_linear_210_377" x1="57.0475" y1="1738.17" x2="278.551" y2="2327.17" gradientUnits="userSpaceOnUse">
<stop stop-color="#53D8FF"/>
<stop offset="1" stop-color="#3840F7"/>
</linearGradient>
<linearGradient id="paint27_linear_210_377" x1="72.7435" y1="2518.89" x2="310.42" y2="2518.89" gradientUnits="userSpaceOnUse">
<stop stop-color="#9CFFFB"/>
<stop offset="1" stop-color="#9BFFFA"/>
</linearGradient>
<linearGradient id="paint28_linear_210_377" x1="100.191" y1="2518.89" x2="337.868" y2="2518.89" gradientUnits="userSpaceOnUse">
<stop stop-color="#9CFFFB"/>
<stop offset="1" stop-color="#9BFFFA"/>
</linearGradient>
<linearGradient id="paint29_linear_210_377" x1="744.388" y1="2518.89" x2="982.065" y2="2518.89" gradientUnits="userSpaceOnUse">
<stop stop-color="#9CFFFB"/>
<stop offset="1" stop-color="#9BFFFA"/>
</linearGradient>
<linearGradient id="paint30_linear_210_377" x1="771.834" y1="2518.89" x2="1009.51" y2="2518.89" gradientUnits="userSpaceOnUse">
<stop stop-color="#9CFFFB"/>
<stop offset="1" stop-color="#9BFFFA"/>
</linearGradient>
<linearGradient id="paint31_linear_210_377" x1="16.6994" y1="2269.44" x2="1024.8" y2="2269.44" gradientUnits="userSpaceOnUse">
<stop stop-color="#9CFFFB"/>
<stop offset="1" stop-color="#9BFFFA"/>
</linearGradient>
<linearGradient id="paint32_linear_210_377" x1="2221.53" y1="-86.9283" x2="2520.16" y2="808.975" gradientUnits="userSpaceOnUse">
<stop stop-color="#53D8FF"/>
<stop offset="1" stop-color="#3840F7"/>
</linearGradient>
<linearGradient id="paint33_linear_210_377" x1="98.2591" y1="1550.72" x2="348.098" y2="2300.23" gradientUnits="userSpaceOnUse">
<stop stop-color="#FDF53F"/>
<stop offset="0.6645" stop-color="#E57A58"/>
<stop offset="1" stop-color="#D93C65"/>
</linearGradient>
<linearGradient id="paint34_linear_210_377" x1="2469.29" y1="1492.26" x2="2720.87" y2="2247.01" gradientUnits="userSpaceOnUse">
<stop stop-color="#53D8FF"/>
<stop offset="1" stop-color="#3840F7"/>
</linearGradient>
<linearGradient id="paint35_linear_210_377" x1="2505.49" y1="191.5" x2="2757.08" y2="946.257" gradientUnits="userSpaceOnUse">
<stop stop-color="#FDF53F"/>
<stop offset="0.6645" stop-color="#E57A58"/>
<stop offset="1" stop-color="#D93C65"/>
</linearGradient>
<linearGradient id="paint36_linear_210_377" x1="2338.07" y1="1311.73" x2="2592.08" y2="2073.75" gradientUnits="userSpaceOnUse">
<stop stop-color="#FDF53F"/>
<stop offset="0.6645" stop-color="#E57A58"/>
<stop offset="1" stop-color="#D93C65"/>
</linearGradient>
<linearGradient id="paint37_linear_210_377" x1="1861.9" y1="1105.53" x2="1721.61" y2="948.138" gradientUnits="userSpaceOnUse">
<stop stop-color="#F9B776"/>
<stop offset="1" stop-color="#F47960"/>
</linearGradient>
<linearGradient id="paint38_linear_210_377" x1="1674.45" y1="1171.05" x2="1837.32" y2="1565.23" gradientUnits="userSpaceOnUse">
<stop stop-color="#2B3582"/>
<stop offset="1" stop-color="#150E42"/>
</linearGradient>
<linearGradient id="paint39_linear_210_377" x1="1662.16" y1="1016.18" x2="425.07" y2="241.736" gradientUnits="userSpaceOnUse">
<stop stop-color="#F9B776"/>
<stop offset="1" stop-color="#F47960"/>
</linearGradient>
<linearGradient id="paint40_linear_210_377" x1="1737.62" y1="1273.89" x2="1976.87" y2="1626.91" gradientUnits="userSpaceOnUse">
<stop stop-color="#2B3582"/>
<stop offset="1" stop-color="#150E42"/>
</linearGradient>
<linearGradient id="paint41_linear_210_377" x1="2362.3" y1="1200.18" x2="2051.35" y2="756.87" gradientUnits="userSpaceOnUse">
<stop stop-color="#CB236D"/>
<stop offset="1" stop-color="#4C246D"/>
</linearGradient>
<linearGradient id="paint42_linear_210_377" x1="1990.7" y1="333.939" x2="2401.85" y2="856.138" gradientUnits="userSpaceOnUse">
<stop stop-color="#2B3582"/>
<stop offset="1" stop-color="#150E42"/>
</linearGradient>
<linearGradient id="paint43_linear_210_377" x1="1975.37" y1="603.453" x2="2036.77" y2="830.646" gradientUnits="userSpaceOnUse">
<stop stop-color="#F9B776"/>
<stop offset="1" stop-color="#F47960"/>
</linearGradient>
<linearGradient id="paint44_linear_210_377" x1="2354.29" y1="775.249" x2="1800.84" y2="548.465" gradientUnits="userSpaceOnUse">
<stop stop-color="#A737D5"/>
<stop offset="1" stop-color="#EF497A"/>
</linearGradient>
<linearGradient id="paint45_linear_210_377" x1="2113.86" y1="673.607" x2="2122.19" y2="543.874" gradientUnits="userSpaceOnUse">
<stop stop-color="#F9B776"/>
<stop offset="1" stop-color="#F47960"/>
</linearGradient>
<linearGradient id="paint46_linear_210_377" x1="2126.12" y1="563.839" x2="1969.4" y2="263.908" gradientUnits="userSpaceOnUse">
<stop stop-color="#F9B776"/>
<stop offset="1" stop-color="#F47960"/>
</linearGradient>
<linearGradient id="paint47_linear_210_377" x1="1989.35" y1="335.002" x2="2400.5" y2="857.202" gradientUnits="userSpaceOnUse">
<stop stop-color="#2B3582"/>
<stop offset="1" stop-color="#150E42"/>
</linearGradient>
<linearGradient id="paint48_linear_210_377" x1="2161.99" y1="545.091" x2="2005.27" y2="245.163" gradientUnits="userSpaceOnUse">
<stop stop-color="#F9B776"/>
<stop offset="1" stop-color="#F47960"/>
</linearGradient>
<linearGradient id="paint49_linear_210_377" x1="2094.12" y1="762.506" x2="1827.46" y2="762.506" gradientUnits="userSpaceOnUse">
<stop stop-color="#F9B776"/>
<stop offset="1" stop-color="#F47960"/>
</linearGradient>
<linearGradient id="paint50_linear_210_377" x1="1961.72" y1="640.294" x2="1914.16" y2="695.064" gradientUnits="userSpaceOnUse">
<stop stop-color="#2B3582"/>
<stop offset="1" stop-color="#150E42"/>
</linearGradient>
<linearGradient id="paint51_linear_210_377" x1="2362.13" y1="756.135" x2="1808.68" y2="529.353" gradientUnits="userSpaceOnUse">
<stop stop-color="#A737D5"/>
<stop offset="1" stop-color="#EF497A"/>
</linearGradient>
<linearGradient id="paint52_linear_210_377" x1="1907.52" y1="627.473" x2="1939.88" y2="747.207" gradientUnits="userSpaceOnUse">
<stop stop-color="#F9B776"/>
<stop offset="1" stop-color="#F47960"/>
</linearGradient>
<linearGradient id="paint53_linear_210_377" x1="2520.43" y1="2211.74" x2="2485.68" y2="2541.85" gradientUnits="userSpaceOnUse">
<stop stop-color="#F9B776"/>
<stop offset="1" stop-color="#F47960"/>
</linearGradient>
<linearGradient id="paint54_linear_210_377" x1="2510.31" y1="1912.08" x2="2421.86" y2="2441.2" gradientUnits="userSpaceOnUse">
<stop stop-color="#F9B776"/>
<stop offset="1" stop-color="#F47960"/>
</linearGradient>
<linearGradient id="paint55_linear_210_377" x1="2391.63" y1="2099.73" x2="2428.07" y2="2166.43" gradientUnits="userSpaceOnUse">
<stop stop-color="#F9B776"/>
<stop offset="1" stop-color="#F47960"/>
</linearGradient>
<linearGradient id="paint56_linear_210_377" x1="2171.2" y1="2677.52" x2="2098.35" y2="2769.12" gradientUnits="userSpaceOnUse">
<stop stop-color="#2B3582"/>
<stop offset="1" stop-color="#150E42"/>
</linearGradient>
<linearGradient id="paint57_linear_210_377" x1="2164.03" y1="2677.01" x2="2181.25" y2="2716.19" gradientUnits="userSpaceOnUse">
<stop stop-color="#F9B776"/>
<stop offset="1" stop-color="#F47960"/>
</linearGradient>
<linearGradient id="paint58_linear_210_377" x1="2688.89" y1="2083.6" x2="2505.67" y2="2374.22" gradientUnits="userSpaceOnUse">
<stop stop-color="#53D8FF"/>
<stop offset="1" stop-color="#3840F7"/>
</linearGradient>
<linearGradient id="paint59_linear_210_377" x1="1987.48" y1="2683.55" x2="2007.43" y2="2728.96" gradientUnits="userSpaceOnUse">
<stop stop-color="#F9B776"/>
<stop offset="1" stop-color="#F47960"/>
</linearGradient>
<linearGradient id="paint60_linear_210_377" x1="2620.44" y1="2164.03" x2="2618.17" y2="2289.39" gradientUnits="userSpaceOnUse">
<stop stop-color="#F9B776"/>
<stop offset="1" stop-color="#F47960"/>
</linearGradient>
<linearGradient id="paint61_linear_210_377" x1="2574.3" y1="2052.35" x2="2453.51" y2="2188.06" gradientUnits="userSpaceOnUse">
<stop stop-color="#F9B776"/>
<stop offset="1" stop-color="#F47960"/>
</linearGradient>
<linearGradient id="paint62_linear_210_377" x1="2644.81" y1="1854.13" x2="2516.1" y2="2097.34" gradientUnits="userSpaceOnUse">
<stop stop-color="#2B3582"/>
<stop offset="1" stop-color="#150E42"/>
</linearGradient>
<linearGradient id="paint63_linear_210_377" x1="2607.9" y1="2079.26" x2="2569.21" y2="2122.73" gradientUnits="userSpaceOnUse">
<stop stop-color="#F9B776"/>
<stop offset="1" stop-color="#F47960"/>
</linearGradient>
<linearGradient id="paint64_linear_210_377" x1="2441.21" y1="2291.32" x2="2507.55" y2="2728.83" gradientUnits="userSpaceOnUse">
<stop stop-color="#F9B776"/>
<stop offset="1" stop-color="#F47960"/>
</linearGradient>
<linearGradient id="paint65_linear_210_377" x1="2528.69" y1="2223.38" x2="2923.55" y2="2833.05" gradientUnits="userSpaceOnUse">
<stop stop-color="#FDF53F"/>
<stop offset="1" stop-color="#D93C65"/>
</linearGradient>
<linearGradient id="paint66_linear_210_377" x1="2278.16" y1="2291.23" x2="2369.77" y2="2869.32" gradientUnits="userSpaceOnUse">
<stop stop-color="#53D8FF"/>
<stop offset="1" stop-color="#3840F7"/>
</linearGradient>
<linearGradient id="paint67_linear_210_377" x1="1931.07" y1="2682.49" x2="1955.87" y2="2769.5" gradientUnits="userSpaceOnUse">
<stop stop-color="#2B3582"/>
<stop offset="1" stop-color="#150E42"/>
</linearGradient>
<linearGradient id="paint68_linear_210_377" x1="2550.55" y1="1542.27" x2="2648.48" y2="2493.11" gradientUnits="userSpaceOnUse">
<stop stop-color="#FDF53F"/>
<stop offset="1" stop-color="#D93C65"/>
</linearGradient>
<linearGradient id="paint69_linear_210_377" x1="2285.94" y1="2072.74" x2="2591.03" y2="2256.46" gradientUnits="userSpaceOnUse">
<stop stop-color="#2B3582"/>
<stop offset="1" stop-color="#150E42"/>
</linearGradient>
<linearGradient id="paint70_linear_210_377" x1="2304.64" y1="2080.13" x2="2550.42" y2="2228.13" gradientUnits="userSpaceOnUse">
<stop stop-color="#53D8FF"/>
<stop offset="1" stop-color="#3840F7"/>
</linearGradient>
<linearGradient id="paint71_linear_210_377" x1="2349.1" y1="2052.01" x2="2356.97" y2="2064.44" gradientUnits="userSpaceOnUse">
<stop stop-color="#8D55D1"/>
<stop offset="0.9964" stop-color="#1C2873"/>
</linearGradient>
<linearGradient id="paint72_linear_210_377" x1="2364.26" y1="2302.99" x2="2430.6" y2="2740.5" gradientUnits="userSpaceOnUse">
<stop stop-color="#F9B776"/>
<stop offset="1" stop-color="#F47960"/>
</linearGradient>
<linearGradient id="paint73_linear_210_377" x1="2527.56" y1="1544.64" x2="2625.49" y2="2495.48" gradientUnits="userSpaceOnUse">
<stop stop-color="#FDF53F"/>
<stop offset="1" stop-color="#D93C65"/>
</linearGradient>
<linearGradient id="paint74_linear_210_377" x1="2423.31" y1="2159.26" x2="2444.06" y2="2159.26" gradientUnits="userSpaceOnUse">
<stop stop-color="#F9B776"/>
<stop offset="1" stop-color="#F47960"/>
</linearGradient>
</defs>
</svg>
